<?xml version="1.0" encoding="UTF-8" standalone="no"?><svg xmlns="http://www.w3.org/2000/svg" xmlns:xlink="http://www.w3.org/1999/xlink" fill="#000000" height="1003" preserveAspectRatio="xMidYMid meet" version="1" viewBox="515.9 498.5 968.1 1003.0" width="968.1" zoomAndPan="magnify"><g fill-rule="evenodd"><g id="change1_1"><path d="M 806.453125 1366.5 C 811.929688 1366.5 816.039062 1362.390625 816.039062 1356.910156 L 816.039062 1314.199219 L 815.765625 1143.058594 L 815.765625 1070.230469 C 816.039062 1044.761719 795.226562 1023.949219 769.488281 1023.949219 L 638.332031 1023.679688 L 526.613281 1023.679688 C 526.066406 1023.679688 528.257812 1023.679688 525.519531 1023.679688 C 522.78125 1023.679688 515.9375 1029.429688 515.9375 1033.261719 C 515.9375 1037.640625 517.304688 1039.011719 519.496094 1041.199219 L 593.972656 1115.679688 C 622.722656 1139.5 631.761719 1143.058594 680.5 1143.058594 L 690.355469 1143.058594 C 693.644531 1143.058594 696.65625 1146.070312 696.65625 1149.359375 L 696.65625 1218.910156 C 696.65625 1247.929688 706.238281 1270.109375 727.046875 1290.921875 L 799.335938 1363.210938 C 800.976562 1365.398438 803.714844 1366.5 806.453125 1366.5 Z M 1193.550781 1366.5 C 1196.28125 1366.5 1199.019531 1365.398438 1200.660156 1363.210938 L 1272.949219 1290.921875 C 1293.761719 1270.109375 1303.351562 1247.929688 1303.351562 1218.910156 L 1303.351562 1149.359375 C 1303.351562 1146.070312 1306.359375 1143.058594 1309.640625 1143.058594 L 1319.5 1143.058594 C 1368.238281 1143.058594 1377.28125 1139.5 1406.03125 1115.679688 L 1480.5 1041.199219 C 1482.691406 1039.011719 1484.058594 1037.640625 1484.058594 1033.261719 C 1484.058594 1029.429688 1477.21875 1023.679688 1474.480469 1023.679688 C 1471.738281 1023.679688 1473.929688 1023.679688 1473.378906 1023.679688 L 1361.671875 1023.679688 L 1230.511719 1023.949219 C 1204.769531 1023.949219 1183.960938 1044.761719 1184.238281 1070.230469 L 1184.238281 1143.058594 L 1183.960938 1314.199219 L 1183.960938 1356.910156 C 1183.960938 1362.390625 1188.070312 1366.5 1193.550781 1366.5 Z M 806.453125 633.5 C 803.714844 633.5 800.976562 634.601562 799.335938 636.789062 L 727.046875 709.078125 C 706.238281 729.890625 696.65625 752.070312 696.65625 781.089844 L 696.65625 850.640625 C 696.65625 853.921875 693.644531 856.941406 690.355469 856.941406 L 680.5 856.941406 C 631.761719 856.941406 622.722656 860.5 593.972656 884.320312 L 519.496094 958.800781 C 517.304688 960.988281 515.9375 962.359375 515.9375 966.738281 C 515.9375 970.570312 522.78125 976.320312 525.519531 976.320312 C 528.257812 976.320312 526.066406 976.320312 526.613281 976.320312 L 638.332031 976.320312 L 769.488281 976.050781 C 795.226562 976.050781 816.039062 955.238281 815.765625 929.769531 L 815.765625 856.941406 L 816.039062 685.800781 L 816.039062 643.089844 C 816.039062 637.609375 811.929688 633.5 806.453125 633.5 Z M 1193.550781 633.5 C 1196.28125 633.5 1199.019531 634.601562 1200.660156 636.789062 L 1272.949219 709.078125 C 1293.761719 729.890625 1303.351562 752.070312 1303.351562 781.089844 L 1303.351562 850.640625 C 1303.351562 853.921875 1306.359375 856.941406 1309.640625 856.941406 L 1319.5 856.941406 C 1368.238281 856.941406 1377.28125 860.5 1406.03125 884.320312 L 1480.5 958.800781 C 1482.691406 960.988281 1484.058594 962.359375 1484.058594 966.738281 C 1484.058594 970.570312 1477.21875 976.320312 1474.480469 976.320312 C 1471.738281 976.320312 1473.929688 976.320312 1473.378906 976.320312 L 1361.671875 976.320312 L 1230.511719 976.050781 C 1204.769531 976.050781 1183.960938 955.238281 1184.238281 929.769531 L 1184.238281 856.941406 L 1183.960938 685.800781 L 1183.960938 643.089844 C 1183.960938 637.609375 1188.070312 633.5 1193.550781 633.5" fill="#787ff6"/></g><g id="change2_1"><path d="M 963.625 1501.210938 C 968.828125 1501.488281 973.207031 1497.109375 973.207031 1491.628906 L 973.207031 1448.910156 L 975.398438 1142.238281 L 975.398438 1069.410156 C 975.398438 1043.671875 954.589844 1022.859375 929.125 1023.128906 L 842.050781 1023.128906 C 851.085938 1036.550781 856.015625 1052.980469 856.289062 1070.230469 L 856.015625 1147.71875 C 856.289062 1147.988281 856.289062 1148.539062 856.015625 1148.808594 L 856.015625 1356.910156 C 856.015625 1360.75 855.46875 1364.578125 854.644531 1368.140625 C 857.382812 1390.589844 866.96875 1408.941406 884.21875 1426.191406 L 956.230469 1498.199219 C 958.148438 1500.121094 960.613281 1501.488281 963.625 1501.210938 Z M 1036.378906 1501.210938 C 1039.390625 1501.488281 1041.851562 1500.121094 1043.769531 1498.199219 L 1115.78125 1426.191406 C 1133.03125 1408.941406 1142.621094 1390.589844 1145.351562 1368.140625 C 1144.53125 1364.578125 1143.980469 1360.75 1143.980469 1356.910156 L 1143.980469 1148.808594 C 1143.710938 1148.539062 1143.710938 1147.988281 1143.980469 1147.71875 L 1143.710938 1070.230469 C 1143.980469 1052.980469 1148.910156 1036.550781 1157.949219 1023.128906 L 1070.878906 1023.128906 C 1045.410156 1022.859375 1024.601562 1043.671875 1024.601562 1069.410156 L 1024.601562 1142.238281 L 1026.789062 1448.910156 L 1026.789062 1491.628906 C 1026.789062 1497.109375 1031.171875 1501.488281 1036.378906 1501.210938 Z M 963.625 498.789062 C 960.613281 498.511719 958.148438 499.878906 956.230469 501.800781 L 884.21875 573.808594 C 866.96875 591.058594 857.382812 609.410156 854.644531 631.859375 C 855.46875 635.421875 856.015625 639.25 856.015625 643.089844 L 856.015625 851.191406 C 856.289062 851.460938 856.289062 852.011719 856.015625 852.28125 L 856.289062 929.769531 C 856.015625 947.019531 851.085938 963.449219 842.050781 976.871094 L 929.125 976.871094 C 954.589844 977.140625 975.398438 956.328125 975.398438 930.589844 L 975.398438 857.761719 L 973.207031 551.078125 L 973.207031 508.371094 C 973.207031 502.890625 968.828125 498.511719 963.625 498.789062 Z M 1036.378906 498.789062 C 1039.390625 498.511719 1041.851562 499.878906 1043.769531 501.800781 L 1115.78125 573.808594 C 1133.03125 591.058594 1142.621094 609.410156 1145.351562 631.859375 C 1144.53125 635.421875 1143.980469 639.25 1143.980469 643.089844 L 1143.980469 851.191406 C 1143.710938 851.460938 1143.710938 852.011719 1143.980469 852.28125 L 1143.710938 929.769531 C 1143.980469 947.019531 1148.910156 963.449219 1157.949219 976.871094 L 1070.878906 976.871094 C 1045.410156 977.140625 1024.601562 956.328125 1024.601562 930.589844 L 1024.601562 857.761719 L 1026.789062 551.078125 L 1026.789062 508.371094 C 1026.789062 502.890625 1031.171875 498.511719 1036.378906 498.789062" fill="#787ff6"/></g></g></svg>