<?xml version="1.0" encoding="UTF-8"?><svg xmlns="http://www.w3.org/2000/svg" xmlns:xlink="http://www.w3.org/1999/xlink" height="44.0" preserveAspectRatio="xMidYMid meet" version="1.0" viewBox="-2.9 0.0 43.8 44.0" width="43.8" zoomAndPan="magnify"><g id="change1_1"><path d="M 25.292969 28.285156 L 12.722656 28.285156 L 12.722656 22 L 25.292969 22 Z M 15.863281 15.714844 C 15.863281 12.847656 18.273438 12.585938 19.015625 12.570312 C 19.546875 12.570312 22.152344 12.726562 22.152344 15.714844 L 22.152344 18.855469 L 15.863281 18.855469 Z M 26.863281 18.855469 L 25.296875 18.855469 L 25.296875 15.714844 C 25.296875 11.101562 21.535156 9.429688 19.011719 9.429688 L 19.011719 10.265625 L 19.007812 9.429688 C 16.480469 9.429688 12.722656 11.101562 12.722656 15.714844 L 12.722656 18.855469 L 11.152344 18.855469 C 10.28125 18.855469 9.578125 19.5625 9.578125 20.429688 L 9.578125 29.855469 C 9.578125 30.726562 10.28125 31.429688 11.152344 31.429688 L 26.863281 31.429688 C 27.734375 31.429688 28.4375 30.726562 28.4375 29.855469 L 28.4375 20.429688 C 28.4375 19.5625 27.734375 18.855469 26.863281 18.855469 Z M 19.011719 40.691406 C 2.492188 32.574219 2.859375 13.515625 3.195312 8.992188 L 19.011719 3.242188 L 34.832031 8.992188 C 35.164062 13.519531 35.523438 32.574219 19.011719 40.691406 Z M 37.863281 7.660156 L 37.746094 6.707031 L 19.554688 0.09375 L 19.28125 0 L 18.726562 0 L 0.28125 6.707031 L 0.164062 7.660156 C 0.132812 7.921875 -2.878906 34.058594 18.347656 43.855469 L 18.660156 44 L 19.363281 44 L 19.675781 43.855469 C 40.890625 34.058594 37.894531 7.921875 37.863281 7.660156" fill="#040606"/></g></svg>