<?xml version="1.0" encoding="UTF-8" standalone="no"?><svg xmlns="http://www.w3.org/2000/svg" xmlns:xlink="http://www.w3.org/1999/xlink" fill="#000000" height="500" preserveAspectRatio="xMidYMid meet" version="1" viewBox="0.0 0.0 500.0 500.0" width="500" zoomAndPan="magnify"><g id="change1_1"><path d="M 250 480.101562 C 126.5 480.101562 25.398438 382.300781 20.199219 260 L 62.699219 260 C 65 307.300781 84.699219 351.601562 118.898438 385.5 C 154.800781 421.199219 201.800781 440.699219 251.601562 440.699219 C 252.300781 440.699219 253 440.699219 253.601562 440.699219 C 357.199219 439.601562 441.101562 354 440.601562 249.398438 C 439.199219 224.898438 430 162.601562 376.199219 113.699219 C 330.601562 72.199219 278.800781 63.800781 251.601562 62.398438 L 117.101562 62.398438 C 154.699219 35.699219 200.5 20 250 20 C 376.800781 19.898438 480 123.101562 480 250 C 480 376.898438 376.800781 480.101562 250 480.101562 Z M 144.898438 260 L 190.398438 260 C 217.5 263.398438 240 280.5 249.101562 304.898438 C 257.601562 327.601562 251.101562 348.300781 246.300781 358.898438 C 192.398438 355.898438 149.101562 313.398438 144.898438 260 Z M 46.601562 142.699219 L 248.601562 142.800781 C 278.101562 142.300781 306.101562 153.800781 327.300781 174.800781 C 348.199219 195.5 359.699219 222.800781 359.601562 251.601562 C 359.5 281.300781 347.398438 308.199219 327.898438 327.699219 C 329.199219 320.300781 330 312.800781 330 305.101562 C 330 235.898438 276.398438 179.699219 210.5 179.699219 L 31 179.699219 C 35.101562 166.800781 40.398438 154.398438 46.601562 142.699219 Z M 25.601562 199.5 L 210.398438 199.5 C 265.300781 199.5 309.898438 246.800781 309.898438 305 C 309.898438 319.601562 307.101562 333.601562 301.699219 346.800781 C 291.300781 352.300781 279.898438 356 267.898438 357.800781 C 272.800781 343.199219 276.398438 321.5 267.601562 297.898438 C 255.800781 266.300781 226.898438 244.199219 192 240.101562 C 191.601562 240.101562 191.199219 240 190.800781 240 L 20.199219 240 C 20.800781 226.199219 22.601562 212.699219 25.601562 199.5 Z M 92.699219 82.300781 L 251 82.300781 C 275.101562 83.5 321.699219 91 362.699219 128.398438 C 411.101562 172.398438 419.300781 228.5 420.601562 250 C 421 343.199219 346 419.800781 253.300781 420.800781 C 208.5 421.300781 165.398438 403.699219 132.898438 371.398438 C 102.5 341.199219 84.898438 302 82.699219 260 L 125 260 C 129.300781 326.101562 184.199219 378.601562 251.300781 379.101562 C 251.601562 379.101562 251.898438 379.199219 252.199219 379.199219 C 252.601562 379.199219 252.898438 379.101562 253.199219 379.101562 C 322.699219 378.5 379.300781 321.601562 379.5 251.699219 C 379.601562 217.5 366.101562 185.199219 341.300781 160.699219 C 316.300781 135.898438 283.101562 122.398438 248.398438 122.898438 L 58.398438 122.800781 C 68.300781 108 79.800781 94.398438 92.699219 82.300781 Z M 250 0 C 185.898438 0 127.398438 24.199219 83.199219 64 C 82.398438 64.601562 81.601562 65.199219 81 66 C 62 83.5 45.699219 103.898438 32.800781 126.5 C 32.199219 127.300781 31.699219 128.101562 31.300781 129.101562 C 21.199219 147.199219 13.300781 166.699219 8 187.300781 C 8 187.398438 7.898438 187.5 7.898438 187.601562 C 2.699219 207.601562 0 228.5 0 250 C 0 387.800781 112.101562 500 250 500 C 387.898438 500 500 387.800781 500 250 C 500 112.199219 387.800781 0 250 0" fill="#787ff6"/></g></svg>