<?xml version="1.0" encoding="UTF-8" standalone="no"?><svg xmlns="http://www.w3.org/2000/svg" xmlns:xlink="http://www.w3.org/1999/xlink" fill="#000000" height="500" preserveAspectRatio="xMidYMid meet" version="1" viewBox="0.0 0.0 500.0 500.0" width="500" zoomAndPan="magnify"><g id="change1_1"><path d="M 378 357.800781 L 378 259.898438 L 479.601562 259.898438 C 474.800781 312.898438 431.5 354.898438 378 357.800781 Z M 259.898438 479.601562 L 259.898438 378 L 357.800781 378 C 354.898438 431.5 312.898438 474.800781 259.898438 479.601562 Z M 142.101562 378 L 240 378 L 240 479.601562 C 187.101562 474.800781 145.101562 431.5 142.101562 378 Z M 20.398438 259.898438 L 122 259.898438 L 122 357.800781 C 68.5 354.898438 25.199219 312.898438 20.398438 259.898438 Z M 122 142.101562 L 122 240 L 20.398438 240 C 25.199219 187.101562 68.5 145.101562 122 142.101562 Z M 240.101562 20.398438 L 240.101562 122 L 142.199219 122 C 145.101562 68.5 187.101562 25.199219 240.101562 20.398438 Z M 357.800781 122 L 259.898438 122 L 259.898438 20.398438 C 312.898438 25.199219 354.898438 68.5 357.800781 122 Z M 332.601562 240.101562 C 321.300781 236.800781 305.101562 230 290.101562 216.199219 C 272.199219 199.699219 263.898438 180.800781 260 167.5 L 260 142 L 358.199219 142 L 358.199219 240.199219 L 332.601562 240.199219 Z M 250.199219 302.898438 C 244.898438 292.300781 237.300781 281 226.300781 270.398438 C 217.199219 261.601562 207.601562 255.199219 198.601562 250.5 C 209.601562 245.199219 221.5 237.300781 232.398438 225.5 C 240.800781 216.398438 246.800781 206.800781 251 197.699219 C 256.800781 208.5 265 220.101562 276.601562 230.699219 C 284.699219 238.199219 293.898438 244.601562 303.699219 249.699219 C 293.199219 255 282 262.5 271.5 273.300781 C 262.101562 283.101562 255.199219 293.300781 250.199219 302.898438 Z M 141.800781 141.800781 L 240 141.800781 L 240 167.800781 C 237.601562 179.601562 231.898438 196.5 217.601562 212.101562 C 200.101562 231.101562 179.199219 237.800781 167.699219 240.101562 L 141.699219 240.101562 L 141.699219 141.800781 Z M 141.800781 259.898438 L 167.601562 259.898438 C 179.601562 262.898438 196.898438 269.601562 212.601562 284.699219 C 230.398438 301.800781 237.398438 321.5 240.101562 332.398438 L 240.101562 358.101562 L 141.898438 358.101562 L 141.898438 259.898438 Z M 358.199219 358.199219 L 260 358.199219 L 260 332.601562 C 263.300781 320.5 270.398438 303.101562 285.800781 287.398438 C 301.898438 270.898438 319.898438 263.5 332.5 260.101562 L 358.101562 260.101562 L 358.101562 358.199219 Z M 479.601562 240.101562 L 378 240.101562 L 378 142.199219 C 431.5 145.101562 474.800781 187.101562 479.601562 240.101562 Z M 500 250 C 500 181.300781 445.601562 125.300781 377.699219 122.300781 C 374.699219 54.398438 318.601562 0 250 0 C 181.398438 0 125.300781 54.398438 122.300781 122.300781 C 54.398438 125.300781 0 181.300781 0 250 C 0 318.699219 54.398438 374.699219 122.300781 377.699219 C 125.300781 445.601562 181.398438 500 250 500 C 318.601562 500 374.699219 445.601562 377.699219 377.699219 C 445.601562 374.699219 500 318.601562 500 250" fill="#787ff6"/></g></svg>