<?xml version="1.0" encoding="UTF-8" standalone="no"?><svg xmlns="http://www.w3.org/2000/svg" xmlns:xlink="http://www.w3.org/1999/xlink" fill="#000000" height="126.1" preserveAspectRatio="xMidYMid meet" version="1" viewBox="0.0 -0.1 126.0 126.1" width="126" zoomAndPan="magnify"><linearGradient gradientUnits="userSpaceOnUse" id="a" x1="63" x2="63" xlink:actuate="onLoad" xlink:show="other" xlink:type="simple" y1="0" y2="126"><stop offset="0" stop-color="#303596"/><stop offset="1" stop-color="#303596"/></linearGradient><path d="M81.058,50.61c-1.849-3.118-4.473-5.717-7.616-7.528c-0.058-0.049-0.124-0.081-0.19-0.116 c-2.005-1.127-4.214-1.926-6.555-2.344c-0.098-0.028-0.198-0.049-0.301-0.046c-1.108-0.181-2.237-0.3-3.395-0.3 s-2.287,0.119-3.395,0.3c-0.104-0.003-0.203,0.018-0.302,0.046c-2.345,0.419-4.556,1.22-6.564,2.35 c-0.062,0.033-0.124,0.063-0.179,0.109c-3.144,1.811-5.768,4.41-7.618,7.529c-0.09,0.096-0.157,0.209-0.204,0.335 C43.004,53.999,42,57.52,42,61.276c0,3.756,1.004,7.277,2.739,10.331c0.046,0.126,0.114,0.239,0.204,0.335 c1.838,3.099,4.442,5.684,7.56,7.494c0.102,0.099,0.224,0.168,0.354,0.215c1.959,1.086,4.111,1.856,6.388,2.27 c0.105,0.037,0.215,0.061,0.329,0.061c0.01,0,0.021-0.006,0.031-0.006c1.108,0.181,2.237,0.3,3.395,0.3s2.287-0.119,3.395-0.3 c0.011,0,0.021,0.006,0.031,0.006c0.113,0,0.223-0.024,0.329-0.061c2.277-0.413,4.429-1.184,6.389-2.27 c0.13-0.048,0.252-0.116,0.354-0.215c3.118-1.81,5.722-4.395,7.56-7.494c0.09-0.096,0.157-0.209,0.204-0.335 C82.996,68.553,84,65.032,84,61.276c0-3.756-1.004-7.277-2.739-10.331C81.215,50.82,81.147,50.707,81.058,50.61z M79.733,70.264 H77.47c0.751-2.66,1.149-5.324,1.232-7.988h3.247C81.799,65.152,81.027,67.865,79.733,70.264z M68.036,79.577 c0.908-2.438,1.635-4.876,2.183-7.313h4.483c-0.697,1.905-1.573,3.806-2.634,5.704C70.806,78.657,69.45,79.187,68.036,79.577z M64,80.226v-7.961h4.165c-0.607,2.597-1.423,5.197-2.455,7.796C65.147,80.141,64.577,80.195,64,80.226z M60.29,80.06 c-1.032-2.599-1.848-5.198-2.455-7.796H62v7.961C61.423,80.195,60.853,80.141,60.29,80.06z M53.932,77.968 c-1.061-1.897-1.937-3.799-2.634-5.704h4.483c0.548,2.436,1.274,4.875,2.183,7.313C56.55,79.187,55.194,78.657,53.932,77.968z M44.051,62.276h3.247c0.083,2.664,0.481,5.329,1.232,7.988h-2.262C44.973,67.865,44.201,65.152,44.051,62.276z M46.267,52.288 h2.265c-0.752,2.66-1.151,5.324-1.234,7.988h-3.247C44.201,57.401,44.973,54.688,46.267,52.288z M57.946,42.98 c-0.922,2.426-1.655,4.862-2.204,7.308h-4.44c0.698-1.906,1.575-3.809,2.636-5.707C55.193,43.897,56.541,43.369,57.946,42.98z M62,42.327v7.961h-4.203c0.61-2.61,1.436-5.21,2.488-7.795C60.849,42.412,61.421,42.357,62,42.327z M65.715,42.493 c1.052,2.585,1.878,5.185,2.488,7.795H64v-7.961C64.579,42.357,65.151,42.412,65.715,42.493z M72.063,44.581 c1.062,1.898,1.938,3.801,2.636,5.707h-4.44c-0.549-2.446-1.283-4.883-2.204-7.308C69.459,43.369,70.807,43.897,72.063,44.581z M71.464,60.276c-0.048-2.671-0.316-5.334-0.801-7.988h4.698c0.796,2.66,1.233,5.324,1.322,7.988H71.464z M62,62.276v7.988h-4.594 c-0.512-2.667-0.795-5.331-0.859-7.988H62z M56.541,60.276c0.05-2.671,0.326-5.335,0.831-7.988H62v7.988H56.541z M64,62.276h5.453 c-0.063,2.657-0.347,5.321-0.859,7.988H64V62.276z M64,60.276v-7.988h4.628c0.504,2.653,0.781,5.317,0.831,7.988H64z M55.336,52.288 c-0.485,2.654-0.753,5.318-0.801,7.988h-5.219c0.089-2.665,0.526-5.329,1.322-7.988H55.336z M49.316,62.276h5.226 c0.061,2.658,0.337,5.321,0.829,7.988h-4.736C49.84,67.605,49.404,64.941,49.316,62.276z M70.629,70.264 c0.492-2.667,0.768-5.33,0.829-7.988h5.226c-0.088,2.665-0.524,5.329-1.32,7.988H70.629z M78.702,60.276 c-0.084-2.664-0.483-5.328-1.234-7.988h2.265c1.294,2.4,2.066,5.113,2.217,7.988H78.702z M78.472,50.288h-1.64 c-0.377-1.089-0.82-2.177-1.309-3.264C76.627,47.995,77.617,49.088,78.472,50.288z M50.477,47.024 c-0.489,1.087-0.932,2.175-1.309,3.264h-1.64C48.383,49.088,49.373,47.995,50.477,47.024z M47.528,72.264h1.637 c0.376,1.087,0.818,2.173,1.305,3.258C49.37,74.553,48.381,73.462,47.528,72.264z M75.529,75.523 c0.488-1.085,0.93-2.171,1.305-3.258h1.637C77.619,73.462,76.63,74.553,75.529,75.523z M86.692,37.089 c-6.501-4.146-13.647-7.111-21.238-8.816c-1.629-0.365-3.279-0.365-4.908,0c-7.591,1.705-14.736,4.671-21.238,8.816 c-1.255,0.801-2.005,2.185-2.005,3.702v30.308c0,4.144,1.221,8.102,3.53,11.446c4.933,7.145,12.002,10.908,21.809,14.664 c0.115,0.044,0.237,0.066,0.358,0.066s0.243-0.022,0.358-0.066c9.807-3.756,16.876-7.52,21.809-14.664 c2.309-3.345,3.53-7.303,3.53-11.446V40.791C88.697,39.273,87.947,37.889,86.692,37.089z M86.697,71.098 c0,3.735-1.098,7.301-3.175,10.31C78.94,88.044,72.265,91.63,63,95.204c-9.265-3.574-15.94-7.16-20.521-13.796 c-2.077-3.009-3.175-6.574-3.175-10.31V40.791c0-0.818,0.414-1.591,1.08-2.017c6.306-4.02,13.237-6.896,20.601-8.551 c0.668-0.15,1.342-0.225,2.016-0.225s1.347,0.074,2.016,0.225c7.364,1.654,14.295,4.531,20.601,8.551 c0.666,0.426,1.08,1.198,1.08,2.017V71.098z M105.323,24.079c-0.552,0-1-0.447-1-1V3.311c0-0.553,0.448-1,1-1s1,0.447,1,1v19.768 C106.323,23.632,105.875,24.079,105.323,24.079z M35.763,21.428c-0.552,0-1-0.447-1-1V2.625c0-0.553,0.448-1,1-1s1,0.447,1,1v17.803 C36.763,20.98,36.315,21.428,35.763,21.428z M0,60.252c0-0.553,0.448-1,1-1l16.947,0.001c0.552,0,1,0.448,1,1c0,0.553-0.448,1-1,1 L1,61.252C0.448,61.252,0,60.804,0,60.252z M17.001,105.582c0,0.553-0.448,1-1,1H1c-0.552,0-1-0.447-1-1s0.448-1,1-1h15.001 C16.554,104.582,17.001,105.029,17.001,105.582z M48.207,106.203v18.78c0,0.553-0.448,1-1,1s-1-0.447-1-1v-18.78 c0-0.553,0.448-1,1-1S48.207,105.65,48.207,106.203z M105.015,98.477V125c0,0.553-0.448,1-1,1s-1-0.447-1-1V98.477 c0-0.553,0.448-1,1-1S105.015,97.925,105.015,98.477z M126,77.262c0,0.553-0.448,1-1,1h-15.356c-0.552,0-1-0.447-1-1s0.448-1,1-1 H125C125.552,76.262,126,76.709,126,77.262z M0,29c0-0.553,0.448-1,1-1h8.474c0.552,0,1,0.447,1,1s-0.448,1-1,1H1 C0.448,30,0,29.553,0,29z M106.986,54.338l6.996,4.356c0.164,0.103,0.347,0.151,0.527,0.151c0.334,0,0.66-0.167,0.85-0.472 c0.292-0.469,0.148-1.085-0.321-1.377l-6.939-4.321l1.056-1.576l3.967,2.537c0.167,0.106,0.353,0.157,0.538,0.157 c0.33,0,0.653-0.163,0.843-0.461c0.298-0.466,0.162-1.084-0.304-1.382l-3.931-2.513l3.389-5.057 c0.273,0.075,0.556,0.129,0.853,0.129c1.783,0,3.234-1.451,3.234-3.234s-1.451-3.234-3.234-3.234s-3.234,1.451-3.234,3.234 c0,0.759,0.274,1.449,0.714,2.002l-10.524,15.704h-9.176v-2.721h7c0.552,0,1-0.447,1-1s-0.448-1-1-1h-7V38.945 c0-1.461-0.709-2.818-1.896-3.63c-2.098-1.434-4.232-2.729-6.394-3.894v-6.795c0-0.553-0.448-1-1-1s-1,0.447-1,1v5.776 c-0.764-0.379-1.532-0.738-2.303-1.084V17.453L95.999,1.72c0.397-0.384,0.409-1.017,0.025-1.414 c-0.383-0.396-1.017-0.409-1.414-0.025L78.003,16.308c-0.195,0.188-0.306,0.448-0.306,0.72v11.413 c-4.227-1.725-8.548-2.957-12.937-3.674c-0.253-0.041-0.507-0.069-0.761-0.092V9.228c0-0.286-0.123-0.56-0.338-0.749l-6.693-5.917 c-0.414-0.365-1.046-0.326-1.411,0.087c-0.366,0.413-0.327,1.046,0.087,1.411L62,9.679v14.995c-0.254,0.023-0.508,0.051-0.761,0.092 c-1.082,0.177-2.16,0.387-3.234,0.626v-4.087c0-0.553-0.448-1-1-1s-1,0.447-1,1v4.591c-3.026,0.785-6.013,1.815-8.954,3.089v-5.009 c0-0.553-0.448-1-1-1s-1,0.447-1,1v5.896c-3.213,1.524-6.366,3.338-9.445,5.442c-1.188,0.812-1.896,2.169-1.896,3.63v7.004h-7.24 c-0.552,0-1,0.447-1,1s0.448,1,1,1h7.24v2.339H22.771V27.036c1.292-0.424,2.234-1.628,2.234-3.06c0-1.783-1.451-3.233-3.234-3.233 s-3.234,1.45-3.234,3.233c0,1.432,0.942,2.636,2.234,3.06v24.252c0,0.553,0.448,1,1,1h11.938v14.456H10.94 c-0.424-1.292-1.628-2.234-3.06-2.234c-1.783,0-3.234,1.451-3.234,3.234s1.451,3.234,3.234,3.234c1.432,0,2.636-0.942,3.06-2.234 h2.917v10.968c0,0.553,0.448,1,1,1s1-0.447,1-1V68.744h17.853v0.83c0,0.398,0.031,0.793,0.047,1.189h-7.569c-0.552,0-1,0.447-1,1 s0.448,1,1,1h7.718c0.517,4.698,2.164,9.167,4.779,12.91l-7.872,7.697c-0.395,0.386-0.402,1.02-0.016,1.414 c0.196,0.2,0.455,0.301,0.715,0.301c0.252,0,0.504-0.095,0.699-0.285l7.677-7.506c0.848,1.056,1.755,2.067,2.725,3.026 L30.816,101.72c-0.195,0.188-0.305,0.447-0.305,0.719v8.588H19.459c-0.552,0-1,0.447-1,1s0.448,1,1,1h11.052v3.613 c-1.292,0.424-2.234,1.628-2.234,3.06c0,1.783,1.451,3.233,3.234,3.233s3.234-1.45,3.234-3.233c0-1.432-0.942-2.636-2.234-3.06 v-13.777l11.566-11.176c4.726,4.188,10.726,7.35,17.923,9.438V125c0,0.553,0.448,1,1,1s1-0.447,1-1v-23.876 c5.96-1.729,11.1-4.194,15.374-7.369v7.242c0,0.553,0.448,1,1,1s1-0.447,1-1v-8.831c0.814-0.694,1.594-1.415,2.336-2.167v16.58 h-7.672c-0.552,0-1,0.447-1,1s0.448,1,1,1h7.672v1.72c-1.292,0.424-2.234,1.628-2.234,3.06c0,1.783,1.451,3.234,3.234,3.234 s3.234-1.451,3.234-3.234c0-1.432-0.942-2.636-2.234-3.06v-7.922h5.009c0.552,0,1-0.447,1-1s-0.448-1-1-1h-5.009V87.794 c0.334-0.401,0.657-0.81,0.973-1.225l6.913,7.216c0.196,0.205,0.459,0.309,0.722,0.309c0.249,0,0.498-0.092,0.692-0.278 c0.399-0.382,0.412-1.015,0.03-1.413l-7.192-7.507c0.365-0.564,0.704-1.144,1.026-1.737l3.719,3.654 c0.194,0.191,0.448,0.287,0.701,0.287c0.259,0,0.518-0.1,0.713-0.299c0.387-0.395,0.381-1.027-0.013-1.414l-4.189-4.116 c1.611-3.604,2.486-7.597,2.486-11.673v-8.616H101V76c0,0.553,0.448,1,1,1s1-0.447,1-1V60.286L106.986,54.338z M21.771,22.743 c0.68,0,1.234,0.554,1.234,1.233c0,0.681-0.554,1.234-1.234,1.234c-0.681,0-1.234-0.554-1.234-1.234 C20.537,23.297,21.09,22.743,21.771,22.743z M7.88,68.978c-0.68,0-1.234-0.554-1.234-1.234S7.2,66.51,7.88,66.51 c0.681,0,1.234,0.554,1.234,1.234S8.561,68.978,7.88,68.978z M31.511,120.932c-0.681,0-1.234-0.554-1.234-1.233 c0-0.681,0.554-1.234,1.234-1.234c0.68,0,1.234,0.554,1.234,1.234C32.745,120.379,32.191,120.932,31.511,120.932z M84.709,114.594 c-0.68,0-1.234-0.554-1.234-1.234s0.554-1.234,1.234-1.234s1.234,0.554,1.234,1.234S85.39,114.594,84.709,114.594z M90.291,69.598 c0,5.698-1.797,11.232-5.06,15.584c-1.612,2.15-3.454,4.083-5.533,5.813c-0.012,0.011-0.026,0.019-0.038,0.03 C75.234,94.7,69.725,97.445,63,99.338c-7.545-2.124-13.56-5.322-18.232-9.701c-0.002-0.002-0.002-0.004-0.003-0.005 c-0.002-0.002-0.005-0.003-0.007-0.005c-1.451-1.361-2.776-2.832-3.973-4.426c-3.272-4.357-5.074-9.907-5.074-15.627V38.945 c0-0.801,0.383-1.54,1.025-1.979c7.87-5.379,16.223-8.819,24.827-10.225c0.478-0.078,0.958-0.117,1.438-0.117 s0.961,0.039,1.438,0.117c8.604,1.405,16.957,4.846,24.827,10.225c0.642,0.439,1.025,1.179,1.025,1.979V69.598z M114.51,40.042 c0.68,0,1.234,0.554,1.234,1.234s-0.554,1.234-1.234,1.234c-0.681,0-1.234-0.554-1.234-1.234S113.83,40.042,114.51,40.042z" fill="url(#a)"/></svg>