<?xml version="1.0" encoding="UTF-8" standalone="no"?><svg xmlns="http://www.w3.org/2000/svg" xmlns:xlink="http://www.w3.org/1999/xlink" fill="#000000" height="250" preserveAspectRatio="xMidYMid meet" version="1" viewBox="0.0 0.0 500.0 250.0" width="500" zoomAndPan="magnify"><g id="change1_1"><path d="M331.1,250h-13.9c0-37-30.1-67.2-67.2-67.2S182.8,213,182.8,250h-13.9c0-44.7,36.4-81.1,81.1-81.1 S331.1,205.3,331.1,250z M250,135.1c-63.4,0-114.9,51.5-114.9,114.9H149c0-55.7,45.3-101,101-101c55.7,0,101,45.3,101,101h13.9 C364.9,186.6,313.4,135.1,250,135.1z M250,101.3c-82,0-148.7,66.7-148.7,148.7h13.9c0-74.3,60.4-134.7,134.7-134.7 S384.7,175.7,384.7,250h13.9C398.7,168,332,101.3,250,101.3z M250,67.5C149.4,67.5,67.5,149.4,67.5,250h13.9 c0-92.9,75.6-168.5,168.5-168.5c92.9,0,168.5,75.6,168.5,168.5h13.9C432.5,149.4,350.6,67.5,250,67.5z M402.9,97.1 C362.1,56.3,307.8,33.8,250,33.8c-57.8,0-112.1,22.5-152.9,63.3C56.3,137.9,33.8,192.2,33.8,250h13.9 c0-111.5,90.7-202.3,202.3-202.3S452.3,138.5,452.3,250h13.9C466.2,192.2,443.7,137.9,402.9,97.1z M426.8,73.2 C379.6,26,316.8,0,250,0S120.4,26,73.2,73.2S0,183.2,0,250h13.9c0-63.1,24.6-122.3,69.1-166.9C127.7,38.5,186.9,13.9,250,13.9 c63.1,0,122.3,24.6,166.9,69.1c44.6,44.6,69.1,103.9,69.1,166.9H500C500,183.2,474,120.4,426.8,73.2z" fill="#787ff6"/></g></svg>