<?xml version="1.0" encoding="UTF-8"?><svg xmlns="http://www.w3.org/2000/svg" xmlns:xlink="http://www.w3.org/1999/xlink" height="1830.0" preserveAspectRatio="xMidYMid meet" version="1.0" viewBox="331.3 343.8 1828.3 1830.0" width="1828.3" zoomAndPan="magnify"><g><g id="change1_1"><path d="M 2154.421875 487.078125 L 718.089844 487.078125 L 718.089844 345.988281 L 2154.421875 345.988281 L 2154.421875 487.078125" fill="#8c7bff"/></g><g id="change2_1"><path d="M 2110.871094 416.039062 C 2110.871094 433.238281 2096.929688 447.191406 2079.730469 447.191406 C 2062.53125 447.191406 2048.578125 433.238281 2048.578125 416.039062 C 2048.578125 398.839844 2062.53125 384.898438 2079.730469 384.898438 C 2096.929688 384.898438 2110.871094 398.839844 2110.871094 416.039062" fill="#fff"/></g><g id="change2_2"><path d="M 2008.449219 416.039062 C 2008.449219 433.238281 1994.5 447.191406 1977.300781 447.191406 C 1960.101562 447.191406 1946.160156 433.238281 1946.160156 416.039062 C 1946.160156 398.839844 1960.101562 384.898438 1977.300781 384.898438 C 1994.5 384.898438 2008.449219 398.839844 2008.449219 416.039062" fill="#fff"/></g><g id="change2_3"><path d="M 1906.019531 416.039062 C 1906.019531 433.238281 1892.078125 447.191406 1874.878906 447.191406 C 1857.679688 447.191406 1843.730469 433.238281 1843.730469 416.039062 C 1843.730469 398.839844 1857.679688 384.898438 1874.878906 384.898438 C 1892.078125 384.898438 1906.019531 398.839844 1906.019531 416.039062" fill="#fff"/></g><g id="change3_1"><path d="M 720.292969 1311.050781 L 2152.21875 1311.050781 L 2152.21875 348.191406 L 720.292969 348.191406 Z M 2154.421875 1315.449219 L 718.089844 1315.449219 C 716.875 1315.449219 715.890625 1314.46875 715.890625 1313.25 L 715.890625 345.988281 C 715.890625 344.769531 716.875 343.78125 718.089844 343.78125 L 2154.421875 343.78125 C 2155.640625 343.78125 2156.621094 344.769531 2156.621094 345.988281 L 2156.621094 1313.25 C 2156.621094 1314.46875 2155.640625 1315.449219 2154.421875 1315.449219"/></g><g id="change1_2"><path d="M 1219.589844 1160.519531 L 1255.480469 1160.519531 L 1255.480469 672.769531 L 1219.589844 672.769531 L 1219.589844 1160.519531" fill="#8c7bff"/></g><g id="change1_3"><path d="M 1290.769531 1160.53125 L 1326.660156 1160.53125 L 1326.660156 822.371094 L 1290.769531 822.371094 L 1290.769531 1160.53125" fill="#8c7bff"/></g><g id="change4_1"><path d="M 1361.949219 1160.539062 L 1397.839844 1160.539062 L 1397.839844 921.71875 L 1361.949219 921.71875 L 1361.949219 1160.539062" fill="#fda4ff"/></g><g id="change1_4"><path d="M 1433.121094 1160.53125 L 1469.019531 1160.53125 L 1469.019531 822.371094 L 1433.121094 822.371094 L 1433.121094 1160.53125" fill="#8c7bff"/></g><g id="change5_1"><path d="M 1504.300781 1160.519531 L 1540.199219 1160.519531 L 1540.199219 727.421875 L 1504.300781 727.421875 L 1504.300781 1160.519531" fill="#4ada85"/></g><g id="change1_5"><path d="M 1575.480469 1160.53125 L 1611.378906 1160.53125 L 1611.378906 822.371094 L 1575.480469 822.371094 L 1575.480469 1160.53125" fill="#8c7bff"/></g><g id="change4_2"><path d="M 1646.660156 1160.539062 L 1682.558594 1160.539062 L 1682.558594 921.71875 L 1646.660156 921.71875 L 1646.660156 1160.539062" fill="#fda4ff"/></g><g id="change1_6"><path d="M 1717.839844 1160.53125 L 1753.730469 1160.53125 L 1753.730469 822.371094 L 1717.839844 822.371094 L 1717.839844 1160.53125" fill="#8c7bff"/></g><g id="change5_2"><path d="M 1789.011719 1160.519531 L 1824.910156 1160.519531 L 1824.910156 727.421875 L 1789.011719 727.421875 L 1789.011719 1160.519531" fill="#4ada85"/></g><g id="change1_7"><path d="M 1860.199219 1160.519531 L 1896.089844 1160.519531 L 1896.089844 672.769531 L 1860.199219 672.769531 L 1860.199219 1160.519531" fill="#8c7bff"/></g><g id="change1_8"><path d="M 1931.378906 1160.53125 L 1967.269531 1160.53125 L 1967.269531 822.371094 L 1931.378906 822.371094 L 1931.378906 1160.53125" fill="#8c7bff"/></g><g id="change4_3"><path d="M 2002.558594 1160.539062 L 2038.449219 1160.539062 L 2038.449219 921.71875 L 2002.558594 921.71875 L 2002.558594 1160.539062" fill="#fda4ff"/></g><g id="change1_9"><path d="M 863.6875 1160.519531 L 899.585938 1160.519531 L 899.585938 672.769531 L 863.6875 672.769531 L 863.6875 1160.519531" fill="#8c7bff"/></g><g id="change1_10"><path d="M 934.871094 1160.53125 L 970.765625 1160.53125 L 970.765625 822.371094 L 934.871094 822.371094 L 934.871094 1160.53125" fill="#8c7bff"/></g><g id="change4_4"><path d="M 1006.050781 1160.539062 L 1041.949219 1160.539062 L 1041.949219 921.71875 L 1006.050781 921.71875 L 1006.050781 1160.539062" fill="#fda4ff"/></g><g id="change1_11"><path d="M 1077.230469 1160.53125 L 1113.121094 1160.53125 L 1113.121094 822.371094 L 1077.230469 822.371094 L 1077.230469 1160.53125" fill="#8c7bff"/></g><g id="change5_3"><path d="M 1148.398438 1160.519531 L 1184.300781 1160.519531 L 1184.300781 727.421875 L 1148.398438 727.421875 L 1148.398438 1160.519531" fill="#4ada85"/></g><g id="change3_2"><path d="M 1182.058594 2171.578125 L 361.570312 2171.578125 L 361.570312 1410.019531 L 1182.058594 1410.019531 L 1182.058594 2171.578125"/></g><g id="change2_4"><path d="M 1154.03125 2143.550781 L 333.535156 2143.550781 L 333.535156 1381.980469 L 1154.03125 1381.980469 L 1154.03125 2143.550781" fill="#fff"/></g><g id="change3_3"><path d="M 335.734375 2141.351562 L 1151.828125 2141.351562 L 1151.828125 1384.191406 L 335.734375 1384.191406 Z M 1154.03125 2145.75 L 333.535156 2145.75 C 332.316406 2145.75 331.335938 2144.761719 331.335938 2143.550781 L 331.335938 1381.980469 C 331.335938 1380.769531 332.316406 1379.78125 333.535156 1379.78125 L 1154.03125 1379.78125 C 1155.238281 1379.78125 1156.230469 1380.769531 1156.230469 1381.980469 L 1156.230469 2143.550781 C 1156.230469 2144.761719 1155.238281 2145.75 1154.03125 2145.75"/></g><g id="change3_4"><path d="M 425.066406 1431.058594 C 407.828125 1431.058594 393.808594 1445.078125 393.808594 1462.320312 C 393.808594 1479.558594 407.828125 1493.578125 425.066406 1493.578125 C 442.308594 1493.578125 456.332031 1479.558594 456.332031 1462.320312 C 456.332031 1445.078125 442.308594 1431.058594 425.066406 1431.058594 Z M 425.066406 1497.988281 C 405.402344 1497.988281 389.402344 1481.988281 389.402344 1462.320312 C 389.402344 1442.648438 405.402344 1426.648438 425.066406 1426.648438 C 444.734375 1426.648438 460.734375 1442.648438 460.734375 1462.320312 C 460.734375 1481.988281 444.734375 1497.988281 425.066406 1497.988281"/></g><g id="change3_5"><path d="M 548.6875 1431.058594 C 531.449219 1431.058594 517.425781 1445.078125 517.425781 1462.320312 C 517.425781 1479.558594 531.449219 1493.578125 548.6875 1493.578125 C 565.929688 1493.578125 579.953125 1479.558594 579.953125 1462.320312 C 579.953125 1445.078125 565.929688 1431.058594 548.6875 1431.058594 Z M 548.6875 1497.988281 C 529.023438 1497.988281 513.023438 1481.988281 513.023438 1462.320312 C 513.023438 1442.648438 529.023438 1426.648438 548.6875 1426.648438 C 568.355469 1426.648438 584.355469 1442.648438 584.355469 1462.320312 C 584.355469 1481.988281 568.355469 1497.988281 548.6875 1497.988281"/></g><g id="change3_6"><path d="M 672.3125 1431.058594 C 655.070312 1431.058594 641.046875 1445.078125 641.046875 1462.320312 C 641.046875 1479.558594 655.070312 1493.578125 672.3125 1493.578125 C 689.550781 1493.578125 703.574219 1479.558594 703.574219 1462.320312 C 703.574219 1445.078125 689.550781 1431.058594 672.3125 1431.058594 Z M 672.3125 1497.988281 C 652.644531 1497.988281 636.644531 1481.988281 636.644531 1462.320312 C 636.644531 1442.648438 652.644531 1426.648438 672.3125 1426.648438 C 691.980469 1426.648438 707.980469 1442.648438 707.980469 1462.320312 C 707.980469 1481.988281 691.980469 1497.988281 672.3125 1497.988281"/></g><g id="change3_7"><path d="M 795.933594 1431.058594 C 778.691406 1431.058594 764.667969 1445.078125 764.667969 1462.320312 C 764.667969 1479.558594 778.691406 1493.578125 795.933594 1493.578125 C 813.171875 1493.578125 827.195312 1479.558594 827.195312 1462.320312 C 827.195312 1445.078125 813.171875 1431.058594 795.933594 1431.058594 Z M 795.933594 1497.988281 C 776.265625 1497.988281 760.265625 1481.988281 760.265625 1462.320312 C 760.265625 1442.648438 776.265625 1426.648438 795.933594 1426.648438 C 815.601562 1426.648438 831.601562 1442.648438 831.601562 1462.320312 C 831.601562 1481.988281 815.601562 1497.988281 795.933594 1497.988281"/></g><g id="change3_8"><path d="M 919.554688 1431.058594 C 902.3125 1431.058594 888.289062 1445.078125 888.289062 1462.320312 C 888.289062 1479.558594 902.3125 1493.578125 919.554688 1493.578125 C 936.789062 1493.578125 950.816406 1479.558594 950.816406 1462.320312 C 950.816406 1445.078125 936.789062 1431.058594 919.554688 1431.058594 Z M 919.554688 1497.988281 C 899.886719 1497.988281 883.886719 1481.988281 883.886719 1462.320312 C 883.886719 1442.648438 899.886719 1426.648438 919.554688 1426.648438 C 939.222656 1426.648438 955.222656 1442.648438 955.222656 1462.320312 C 955.222656 1481.988281 939.222656 1497.988281 919.554688 1497.988281"/></g><g id="change3_9"><path d="M 1043.171875 1431.058594 C 1025.941406 1431.058594 1011.910156 1445.078125 1011.910156 1462.320312 C 1011.910156 1479.558594 1025.941406 1493.578125 1043.171875 1493.578125 C 1060.410156 1493.578125 1074.441406 1479.558594 1074.441406 1462.320312 C 1074.441406 1445.078125 1060.410156 1431.058594 1043.171875 1431.058594 Z M 1043.171875 1497.988281 C 1023.511719 1497.988281 1007.511719 1481.988281 1007.511719 1462.320312 C 1007.511719 1442.648438 1023.511719 1426.648438 1043.171875 1426.648438 C 1062.839844 1426.648438 1078.839844 1442.648438 1078.839844 1462.320312 C 1078.839844 1481.988281 1062.839844 1497.988281 1043.171875 1497.988281"/></g><g id="change3_10"><path d="M 425.066406 1464.519531 C 423.855469 1464.519531 422.867188 1463.539062 422.867188 1462.320312 L 422.867188 1306.691406 C 422.867188 1305.480469 423.855469 1304.488281 425.066406 1304.488281 C 426.285156 1304.488281 427.269531 1305.480469 427.269531 1306.691406 L 427.269531 1462.320312 C 427.269531 1463.539062 426.285156 1464.519531 425.066406 1464.519531"/></g><g id="change3_11"><path d="M 548.6875 1464.519531 C 547.476562 1464.519531 546.488281 1463.539062 546.488281 1462.320312 L 546.488281 1306.691406 C 546.488281 1305.480469 547.476562 1304.488281 548.6875 1304.488281 C 549.90625 1304.488281 550.894531 1305.480469 550.894531 1306.691406 L 550.894531 1462.320312 C 550.894531 1463.539062 549.90625 1464.519531 548.6875 1464.519531"/></g><g id="change3_12"><path d="M 672.3125 1464.519531 C 671.097656 1464.519531 670.109375 1463.539062 670.109375 1462.320312 L 670.109375 1306.691406 C 670.109375 1305.480469 671.097656 1304.488281 672.3125 1304.488281 C 673.527344 1304.488281 674.515625 1305.480469 674.515625 1306.691406 L 674.515625 1462.320312 C 674.515625 1463.539062 673.527344 1464.519531 672.3125 1464.519531"/></g><g id="change3_13"><path d="M 795.933594 1464.519531 C 794.71875 1464.519531 793.730469 1463.539062 793.730469 1462.320312 L 793.730469 1306.691406 C 793.730469 1305.480469 794.71875 1304.488281 795.933594 1304.488281 C 797.148438 1304.488281 798.136719 1305.480469 798.136719 1306.691406 L 798.136719 1462.320312 C 798.136719 1463.539062 797.148438 1464.519531 795.933594 1464.519531"/></g><g id="change3_14"><path d="M 919.554688 1464.519531 C 918.339844 1464.519531 917.351562 1463.539062 917.351562 1462.320312 L 917.351562 1306.691406 C 917.351562 1305.480469 918.339844 1304.488281 919.554688 1304.488281 C 920.769531 1304.488281 921.757812 1305.480469 921.757812 1306.691406 L 921.757812 1462.320312 C 921.757812 1463.539062 920.769531 1464.519531 919.554688 1464.519531"/></g><g id="change3_15"><path d="M 1043.171875 1464.519531 C 1041.960938 1464.519531 1040.96875 1463.539062 1040.96875 1462.320312 L 1040.96875 1306.691406 C 1040.96875 1305.480469 1041.960938 1304.488281 1043.171875 1304.488281 C 1044.390625 1304.488281 1045.378906 1305.480469 1045.378906 1306.691406 L 1045.378906 1462.320312 C 1045.378906 1463.539062 1044.390625 1464.519531 1043.171875 1464.519531"/></g><g id="change6_1"><path d="M 484.367188 1638.199219 L 406.402344 1638.199219 L 406.402344 1569 L 484.367188 1569 L 484.367188 1638.199219" fill="#fed101"/></g><g id="change6_2"><path d="M 603.375 1638.199219 L 525.410156 1638.199219 L 525.410156 1569 L 603.375 1569 L 603.375 1638.199219" fill="#fed101"/></g><g id="change6_3"><path d="M 722.382812 1638.199219 L 644.414062 1638.199219 L 644.414062 1569 L 722.382812 1569 L 722.382812 1638.199219" fill="#fed101"/></g><g id="change6_4"><path d="M 841.386719 1638.199219 L 763.421875 1638.199219 L 763.421875 1569 L 841.386719 1569 L 841.386719 1638.199219" fill="#fed101"/></g><g id="change7_1"><path d="M 960.390625 1638.199219 L 882.425781 1638.199219 L 882.425781 1569 L 960.390625 1569 L 960.390625 1638.199219" fill="#fcb503"/></g><g id="change7_2"><path d="M 1079.398438 1638.199219 L 1001.429688 1638.199219 L 1001.429688 1569 L 1079.398438 1569 L 1079.398438 1638.199219" fill="#fcb503"/></g><g id="change6_5"><path d="M 484.367188 1746.070312 L 406.402344 1746.070312 L 406.402344 1676.871094 L 484.367188 1676.871094 L 484.367188 1746.070312" fill="#fed101"/></g><g id="change6_6"><path d="M 603.375 1746.070312 L 525.410156 1746.070312 L 525.410156 1676.871094 L 603.375 1676.871094 L 603.375 1746.070312" fill="#fed101"/></g><g id="change6_7"><path d="M 722.382812 1746.070312 L 644.414062 1746.070312 L 644.414062 1676.871094 L 722.382812 1676.871094 L 722.382812 1746.070312" fill="#fed101"/></g><g id="change6_8"><path d="M 841.386719 1746.070312 L 763.421875 1746.070312 L 763.421875 1676.871094 L 841.386719 1676.871094 L 841.386719 1746.070312" fill="#fed101"/></g><g id="change7_3"><path d="M 960.390625 1746.070312 L 882.425781 1746.070312 L 882.425781 1676.871094 L 960.390625 1676.871094 L 960.390625 1746.070312" fill="#fcb503"/></g><g id="change7_4"><path d="M 1079.398438 1746.070312 L 1001.429688 1746.070312 L 1001.429688 1676.871094 L 1079.398438 1676.871094 L 1079.398438 1746.070312" fill="#fcb503"/></g><g id="change6_9"><path d="M 484.367188 1853.941406 L 406.402344 1853.941406 L 406.402344 1784.738281 L 484.367188 1784.738281 L 484.367188 1853.941406" fill="#fed101"/></g><g id="change6_10"><path d="M 603.375 1853.941406 L 525.410156 1853.941406 L 525.410156 1784.738281 L 603.375 1784.738281 L 603.375 1853.941406" fill="#fed101"/></g><g id="change8_1"><path d="M 722.382812 1853.941406 L 644.414062 1853.941406 L 644.414062 1784.738281 L 722.382812 1784.738281 L 722.382812 1853.941406" fill="#ff7dce"/></g><g id="change6_11"><path d="M 841.386719 1853.941406 L 763.421875 1853.941406 L 763.421875 1784.738281 L 841.386719 1784.738281 L 841.386719 1853.941406" fill="#fed101"/></g><g id="change7_5"><path d="M 960.390625 1853.941406 L 882.425781 1853.941406 L 882.425781 1784.738281 L 960.390625 1784.738281 L 960.390625 1853.941406" fill="#fcb503"/></g><g id="change7_6"><path d="M 1079.398438 1853.941406 L 1001.429688 1853.941406 L 1001.429688 1784.738281 L 1079.398438 1784.738281 L 1079.398438 1853.941406" fill="#fcb503"/></g><g id="change6_12"><path d="M 484.367188 1961.808594 L 406.402344 1961.808594 L 406.402344 1892.609375 L 484.367188 1892.609375 L 484.367188 1961.808594" fill="#fed101"/></g><g id="change6_13"><path d="M 603.375 1961.808594 L 525.410156 1961.808594 L 525.410156 1892.609375 L 603.375 1892.609375 L 603.375 1961.808594" fill="#fed101"/></g><g id="change6_14"><path d="M 722.382812 1961.808594 L 644.414062 1961.808594 L 644.414062 1892.609375 L 722.382812 1892.609375 L 722.382812 1961.808594" fill="#fed101"/></g><g id="change6_15"><path d="M 841.386719 1961.808594 L 763.421875 1961.808594 L 763.421875 1892.609375 L 841.386719 1892.609375 L 841.386719 1961.808594" fill="#fed101"/></g><g id="change7_7"><path d="M 960.390625 1961.808594 L 882.425781 1961.808594 L 882.425781 1892.609375 L 960.390625 1892.609375 L 960.390625 1961.808594" fill="#fcb503"/></g><g id="change7_8"><path d="M 1079.398438 1961.808594 L 1001.429688 1961.808594 L 1001.429688 1892.609375 L 1079.398438 1892.609375 L 1079.398438 1961.808594" fill="#fcb503"/></g><g id="change6_16"><path d="M 484.367188 2069.679688 L 406.402344 2069.679688 L 406.402344 2000.480469 L 484.367188 2000.480469 L 484.367188 2069.679688" fill="#fed101"/></g><g id="change6_17"><path d="M 603.375 2069.679688 L 525.410156 2069.679688 L 525.410156 2000.480469 L 603.375 2000.480469 L 603.375 2069.679688" fill="#fed101"/></g><g id="change3_16"><path d="M 2054.28125 2171.300781 L 2147.070312 2169.191406 C 2154.28125 2168.621094 2159.609375 2162.21875 2158.859375 2155.03125 L 2123.789062 1820.230469 C 2122.730469 1810.128906 2114.160156 1802.5 2104 1802.601562 L 1719.128906 1806.640625 L 1564.230469 2170.96875 L 2054.28125 2171.300781"/></g><g id="change3_17"><path d="M 1747.558594 1802.738281 L 1960.699219 1802.921875 L 1967.21875 1746.628906 C 1967.539062 1743.839844 1966.789062 1741.261719 1965.101562 1739.351562 C 1963.511719 1737.570312 1961.261719 1736.589844 1958.75 1736.589844 L 1765.378906 1736.429688 C 1765.371094 1736.429688 1765.371094 1736.429688 1765.371094 1736.429688 C 1759.789062 1736.429688 1754.699219 1741.140625 1754.03125 1746.941406 Z M 1962.660156 1807.320312 L 1745.089844 1807.140625 C 1744.460938 1807.140625 1743.859375 1806.871094 1743.441406 1806.398438 C 1743.03125 1805.929688 1742.828125 1805.308594 1742.898438 1804.691406 L 1749.648438 1746.429688 C 1750.570312 1738.488281 1757.621094 1732.019531 1765.371094 1732.019531 L 1765.378906 1732.019531 L 1958.75 1732.191406 C 1962.539062 1732.191406 1965.960938 1733.699219 1968.390625 1736.429688 C 1970.929688 1739.28125 1972.058594 1743.078125 1971.589844 1747.140625 L 1964.839844 1805.378906 C 1964.710938 1806.488281 1963.78125 1807.320312 1962.660156 1807.320312"/></g><g id="change3_18"><path d="M 1760.328125 1803.730469 L 1944.320312 1803.890625 L 1950.441406 1751.140625 L 1766.441406 1750.980469 Z M 1946.289062 1808.289062 L 1757.859375 1808.128906 C 1757.230469 1808.128906 1756.628906 1807.871094 1756.210938 1807.398438 C 1755.800781 1806.929688 1755.601562 1806.300781 1755.671875 1805.679688 L 1762.300781 1748.519531 C 1762.429688 1747.410156 1763.371094 1746.578125 1764.480469 1746.578125 L 1952.910156 1746.738281 C 1953.539062 1746.738281 1954.140625 1747 1954.550781 1747.46875 C 1954.96875 1747.941406 1955.171875 1748.570312 1955.101562 1749.191406 L 1948.46875 1806.351562 C 1948.339844 1807.460938 1947.398438 1808.289062 1946.289062 1808.289062"/></g><g id="change2_5"><path d="M 1566.660156 2168.71875 L 2054.308594 2169.128906 L 2096.109375 1808.550781 L 1608.449219 1808.140625 L 1566.660156 2168.71875" fill="#fff"/></g><g id="change3_19"><path d="M 1569.128906 2166.519531 L 2052.351562 2166.921875 L 2093.640625 1810.75 L 1610.410156 1810.339844 Z M 2054.308594 2171.328125 L 1566.660156 2170.921875 C 1566.03125 2170.921875 1565.429688 2170.648438 1565.011719 2170.179688 C 1564.601562 2169.710938 1564.398438 2169.078125 1564.46875 2168.460938 L 1606.269531 1807.890625 C 1606.398438 1806.78125 1607.339844 1805.941406 1608.449219 1805.941406 L 2096.109375 1806.351562 C 2096.738281 1806.351562 2097.339844 1806.621094 2097.75 1807.089844 C 2098.171875 1807.558594 2098.371094 1808.179688 2098.300781 1808.808594 L 2056.5 2169.378906 C 2056.371094 2170.488281 2055.429688 2171.328125 2054.308594 2171.328125"/></g><g id="change2_6"><path d="M 1625.050781 2005.558594 L 2033.75 2005.898438 L 2096.519531 1805.050781 L 1608.859375 1804.640625 L 1625.050781 2005.558594" fill="#fff"/></g><g id="change3_20"><path d="M 1627.078125 2003.359375 L 2032.128906 2003.699219 L 2093.519531 1807.25 L 1611.25 1806.839844 Z M 2033.75 2008.109375 L 1625.050781 2007.761719 C 1623.898438 2007.761719 1622.949219 2006.878906 1622.859375 2005.738281 L 1606.660156 1804.820312 C 1606.621094 1804.199219 1606.828125 1803.601562 1607.238281 1803.148438 C 1607.660156 1802.699219 1608.238281 1802.441406 1608.859375 1802.441406 L 2096.519531 1802.851562 C 2097.21875 1802.851562 2097.878906 1803.179688 2098.289062 1803.75 C 2098.710938 1804.308594 2098.820312 1805.039062 2098.621094 1805.710938 L 2035.851562 2006.558594 C 2035.570312 2007.480469 2034.710938 2008.109375 2033.75 2008.109375"/></g><g id="change2_7"><path d="M 1929.148438 2043.070312 L 1967.738281 2043.101562 L 1976.371094 1968.601562 L 1937.789062 1968.570312 L 1929.148438 2043.070312" fill="#fff"/></g><g id="change3_21"><path d="M 1931.621094 2040.871094 L 1965.78125 2040.898438 L 1973.898438 1970.800781 L 1939.75 1970.769531 Z M 1967.738281 2045.300781 L 1929.148438 2045.269531 C 1928.519531 2045.269531 1927.929688 2045 1927.511719 2044.53125 C 1927.089844 2044.058594 1926.890625 2043.441406 1926.96875 2042.808594 L 1935.601562 1968.320312 C 1935.730469 1967.210938 1936.671875 1966.371094 1937.789062 1966.371094 L 1976.371094 1966.398438 C 1977 1966.398438 1977.601562 1966.671875 1978.019531 1967.140625 C 1978.429688 1967.609375 1978.628906 1968.230469 1978.558594 1968.859375 L 1969.921875 2043.351562 C 1969.789062 2044.460938 1968.859375 2045.300781 1967.738281 2045.300781"/></g><g id="change2_8"><path d="M 1692.289062 2042.871094 L 1730.878906 2042.898438 L 1739.511719 1968.398438 L 1700.929688 1968.371094 L 1692.289062 2042.871094" fill="#fff"/></g><g id="change3_22"><path d="M 1694.761719 2040.671875 L 1728.910156 2040.699219 L 1737.039062 1970.601562 L 1702.890625 1970.578125 Z M 1730.878906 2045.101562 L 1692.289062 2045.070312 C 1691.660156 2045.070312 1691.058594 2044.800781 1690.648438 2044.328125 C 1690.230469 2043.859375 1690.03125 2043.238281 1690.109375 2042.609375 L 1698.738281 1968.121094 C 1698.871094 1967.011719 1699.808594 1966.171875 1700.929688 1966.171875 L 1739.511719 1966.199219 C 1740.140625 1966.199219 1740.738281 1966.46875 1741.160156 1966.941406 C 1741.570312 1967.410156 1741.769531 1968.03125 1741.699219 1968.660156 L 1733.058594 2043.148438 C 1732.929688 2044.261719 1731.988281 2045.101562 1730.878906 2045.101562"/></g><g id="change5_4"><path d="M 1780.640625 1760.488281 L 1935 1760.621094 L 1938.960938 1726.488281 L 1784.601562 1726.359375 L 1780.640625 1760.488281" fill="#4ada85"/></g><g id="change3_23"><path d="M 1783.109375 1758.289062 L 1933.039062 1758.421875 L 1936.480469 1728.691406 L 1786.558594 1728.558594 Z M 1935 1762.820312 L 1780.640625 1762.691406 C 1780.011719 1762.691406 1779.410156 1762.421875 1779 1761.949219 C 1778.578125 1761.480469 1778.378906 1760.859375 1778.460938 1760.238281 L 1782.410156 1726.101562 C 1782.539062 1724.988281 1783.480469 1724.148438 1784.601562 1724.148438 L 1938.960938 1724.28125 C 1939.589844 1724.28125 1940.179688 1724.550781 1940.601562 1725.019531 C 1941.019531 1725.488281 1941.210938 1726.121094 1941.140625 1726.738281 L 1937.191406 1760.871094 C 1937.058594 1761.980469 1936.121094 1762.820312 1935 1762.820312"/></g><g id="change2_9"><path d="M 1780.640625 1760.488281 L 1935 1760.621094 L 1938.960938 1726.488281 L 1784.601562 1726.359375 L 1780.640625 1760.488281" fill="#fff"/></g><g id="change3_24"><path d="M 1783.109375 1758.289062 L 1933.039062 1758.421875 L 1936.480469 1728.691406 L 1786.558594 1728.558594 Z M 1935 1762.820312 L 1780.640625 1762.691406 C 1780.011719 1762.691406 1779.410156 1762.421875 1779 1761.949219 C 1778.578125 1761.480469 1778.378906 1760.859375 1778.460938 1760.238281 L 1782.410156 1726.101562 C 1782.539062 1724.988281 1783.480469 1724.148438 1784.601562 1724.148438 L 1938.960938 1724.28125 C 1939.589844 1724.28125 1940.179688 1724.550781 1940.601562 1725.019531 C 1941.019531 1725.488281 1941.210938 1726.121094 1941.140625 1726.738281 L 1937.191406 1760.871094 C 1937.058594 1761.980469 1936.121094 1762.820312 1935 1762.820312"/></g><g id="change5_5"><path d="M 2108.960938 2100.25 C 2107.761719 2100.25 2106.769531 2099.269531 2106.761719 2098.058594 L 2104.949219 1849.320312 C 2104.941406 1848.101562 2105.921875 1847.109375 2107.140625 1847.101562 L 2107.148438 1847.101562 C 2108.359375 1847.101562 2109.351562 1848.070312 2109.359375 1849.289062 L 2111.171875 2098.03125 C 2111.171875 2099.25 2110.199219 2100.238281 2108.980469 2100.25 C 2108.96875 2100.25 2108.96875 2100.25 2108.960938 2100.25" fill="#4ada85"/></g><g id="change5_6"><path d="M 2132.058594 2163.878906 C 2131.160156 2163.878906 2130.320312 2163.320312 2129.988281 2162.429688 L 2106.890625 2098.800781 C 2106.480469 2097.660156 2107.070312 2096.390625 2108.210938 2095.980469 C 2109.359375 2095.558594 2110.621094 2096.148438 2111.039062 2097.300781 L 2134.128906 2160.929688 C 2134.550781 2162.070312 2133.960938 2163.328125 2132.808594 2163.75 C 2132.558594 2163.839844 2132.308594 2163.878906 2132.058594 2163.878906" fill="#4ada85"/></g><g id="change3_25"><path d="M 777.40625 895.121094 C 777.40625 922.320312 799.453125 944.371094 826.648438 944.371094 C 853.847656 944.371094 875.894531 922.320312 875.894531 895.121094 C 875.894531 867.921875 853.847656 845.878906 826.648438 845.878906 C 799.453125 845.878906 777.40625 867.921875 777.40625 895.121094"/></g><g id="change3_26"><path d="M 700.285156 909.058594 C 700.285156 936.261719 722.335938 958.300781 749.53125 958.300781 C 776.730469 958.300781 798.773438 936.261719 798.773438 909.058594 C 798.773438 881.859375 776.730469 859.808594 749.53125 859.808594 C 722.335938 859.808594 700.285156 881.859375 700.285156 909.058594"/></g><g id="change3_27"><path d="M 623.171875 923 C 623.171875 950.191406 645.21875 972.238281 672.414062 972.238281 C 699.609375 972.238281 721.65625 950.191406 721.65625 923 C 721.65625 895.800781 699.609375 873.75 672.414062 873.75 C 645.21875 873.75 623.171875 895.800781 623.171875 923"/></g><g id="change4_5"><path d="M 825.769531 959.21875 L 864.5625 959.21875 L 864.5625 909.078125 L 825.769531 909.078125 L 825.769531 959.21875" fill="#fda4ff"/></g><g id="change3_28"><path d="M 825.769531 923.789062 L 825.769531 909.078125 L 864.5625 909.078125 L 864.5625 941.550781 C 861.0625 942.238281 854.085938 943.121094 846.070312 940.480469 C 833.527344 936.351562 827.371094 926.539062 825.769531 923.789062"/></g><g id="change4_6"><path d="M 819.222656 897.621094 C 819.222656 916.671875 833.1875 932.109375 850.421875 932.109375 C 867.652344 932.109375 881.621094 916.671875 881.621094 897.621094 C 881.621094 878.570312 867.652344 863.128906 850.421875 863.128906 C 833.1875 863.128906 819.222656 878.570312 819.222656 897.621094" fill="#fda4ff"/></g><g id="change3_29"><path d="M 850.730469 862.5 C 853.976562 862.5 857.105469 863.050781 860.054688 864.039062 C 855.941406 885.261719 840.492188 902.421875 820.261719 908.980469 C 819.230469 905.511719 818.65625 901.808594 818.65625 897.949219 C 818.65625 878.371094 833.019531 862.5 850.730469 862.5"/></g><g id="change2_10"><path d="M 836.859375 912.761719 C 839.878906 915.53125 843.761719 917.390625 848.140625 917.839844 C 857.910156 918.828125 866.71875 912.488281 869.140625 903.28125 L 836.859375 912.761719" fill="#fff"/></g><g id="change3_30"><path d="M 1350.261719 1717.101562 L 1484.859375 1738 L 1518.828125 1519.191406 L 1384.230469 1498.289062 L 1350.261719 1717.101562"/></g><g id="change5_7"><path d="M 1622.429688 1818.230469 L 1566.589844 1768.949219 L 1524.039062 1680.578125 L 1436.210938 1691.859375 C 1417.558594 1694.261719 1398.761719 1688.738281 1384.378906 1676.628906 L 1381.898438 1674.539062 C 1367.378906 1662.320312 1361.140625 1642.851562 1365.871094 1624.46875 L 1367.058594 1619.828125 C 1369.398438 1610.710938 1358.078125 1604.429688 1351.578125 1611.238281 L 1227.628906 1741.160156 L 1270.890625 1782.710938 C 1293.839844 1804.75 1320.019531 1823.140625 1348.539062 1837.238281 L 1359.96875 1842.898438 C 1429.480469 1877.28125 1503.828125 1900.890625 1580.449219 1912.890625 L 1635.441406 1921.511719 L 1658.160156 1902.589844 L 1659.050781 1900.789062 C 1665.421875 1887.910156 1665.898438 1872.890625 1660.359375 1859.628906 L 1660.28125 1859.449219 C 1657.550781 1852.898438 1653.441406 1847.019531 1648.238281 1842.191406 L 1622.429688 1818.230469" fill="#4ada85"/></g><g id="change3_31"><path d="M 1230.738281 1741.089844 L 1272.421875 1781.121094 C 1295.21875 1803.03125 1321.160156 1821.25 1349.511719 1835.269531 L 1360.949219 1840.921875 C 1430.339844 1875.25 1504.300781 1898.730469 1580.789062 1910.71875 L 1634.789062 1919.179688 L 1656.390625 1901.199219 L 1657.070312 1899.808594 C 1663.171875 1887.5 1663.621094 1873.160156 1658.320312 1860.480469 C 1655.621094 1854 1651.75 1848.449219 1646.738281 1843.808594 L 1620.949219 1819.859375 L 1565.128906 1770.601562 C 1564.910156 1770.410156 1564.730469 1770.171875 1564.601562 1769.910156 L 1522.738281 1682.960938 L 1436.488281 1694.050781 C 1417.28125 1696.519531 1397.78125 1690.78125 1382.960938 1678.308594 L 1380.480469 1676.230469 C 1365.398438 1663.539062 1358.828125 1643.011719 1363.730469 1623.921875 L 1364.921875 1619.28125 C 1365.910156 1615.449219 1363.730469 1612.679688 1361.570312 1611.480469 C 1359.398438 1610.28125 1355.898438 1609.898438 1353.171875 1612.761719 Z M 1635.441406 1923.710938 C 1635.320312 1923.710938 1635.210938 1923.699219 1635.089844 1923.691406 L 1580.109375 1915.070312 C 1503.179688 1903.011719 1428.789062 1879.390625 1358.988281 1844.871094 L 1347.558594 1839.21875 C 1318.808594 1824.988281 1292.5 1806.519531 1269.371094 1784.300781 L 1226.101562 1742.738281 C 1225.230469 1741.898438 1225.199219 1740.519531 1226.039062 1739.640625 L 1349.988281 1609.71875 C 1353.609375 1605.929688 1359.121094 1605.089844 1363.699219 1607.628906 C 1368.289062 1610.179688 1370.488281 1615.300781 1369.191406 1620.378906 L 1368 1625.019531 C 1363.511719 1642.46875 1369.53125 1661.25 1383.320312 1672.859375 L 1385.800781 1674.949219 C 1399.671875 1686.621094 1417.949219 1691.988281 1435.929688 1689.679688 L 1523.761719 1678.390625 C 1524.710938 1678.28125 1525.609375 1678.769531 1526.019531 1679.621094 L 1568.378906 1767.601562 L 1623.890625 1816.578125 C 1623.898438 1816.589844 1623.910156 1816.609375 1623.929688 1816.621094 L 1649.738281 1840.578125 C 1655.210938 1845.648438 1659.441406 1851.71875 1662.308594 1858.601562 C 1668.179688 1872.640625 1667.679688 1888.308594 1661.019531 1901.769531 L 1660.128906 1903.570312 C 1659.988281 1903.839844 1659.800781 1904.089844 1659.558594 1904.28125 L 1636.839844 1923.199219 C 1636.449219 1923.539062 1635.949219 1923.710938 1635.441406 1923.710938"/></g><g id="change2_11"><path d="M 1486.761719 1685.371094 L 1524.039062 1680.578125 L 1566.589844 1768.949219 L 1532.308594 1752 C 1520.871094 1746.339844 1511.648438 1737.03125 1506.109375 1725.53125 L 1486.761719 1685.371094" fill="#fff"/></g><g id="change3_32"><path d="M 1490.070312 1687.160156 L 1508.101562 1724.578125 C 1513.398438 1735.570312 1522.339844 1744.609375 1533.289062 1750.019531 L 1561.828125 1764.140625 L 1522.738281 1682.960938 Z M 1566.589844 1771.148438 C 1566.261719 1771.148438 1565.921875 1771.078125 1565.609375 1770.929688 L 1531.328125 1753.96875 C 1519.519531 1748.128906 1509.851562 1738.359375 1504.128906 1726.488281 L 1484.78125 1686.320312 C 1484.46875 1685.691406 1484.488281 1684.941406 1484.820312 1684.320312 C 1485.160156 1683.699219 1485.78125 1683.269531 1486.480469 1683.179688 L 1523.761719 1678.390625 C 1524.710938 1678.28125 1525.609375 1678.769531 1526.019531 1679.621094 L 1568.570312 1768 C 1568.980469 1768.851562 1568.800781 1769.859375 1568.128906 1770.519531 C 1567.710938 1770.941406 1567.148438 1771.148438 1566.589844 1771.148438"/></g><g id="change2_12"><path d="M 1418.300781 1768.160156 L 1407.96875 1789.050781 L 1348.929688 1712.28125 L 1328.769531 1749.738281 L 1294.960938 1670.578125 L 1282.410156 1667.878906 L 1219.679688 1734.398438 L 1271.328125 1783.480469 C 1293.988281 1805.011719 1319.761719 1823.011719 1347.769531 1836.859375 L 1359.96875 1842.898438 C 1429.480469 1877.28125 1503.828125 1900.890625 1580.449219 1912.890625 L 1635.441406 1921.511719 L 1658.160156 1902.589844 L 1631.210938 1895.050781 C 1532.511719 1866.25 1481.011719 1805.679688 1481.011719 1805.679688 L 1473.191406 1822.609375 L 1418.300781 1768.160156" fill="#fff"/></g><g id="change3_33"><path d="M 1222.789062 1734.320312 L 1272.851562 1781.890625 C 1295.371094 1803.28125 1320.898438 1821.121094 1348.75 1834.890625 L 1360.949219 1840.921875 C 1430.339844 1875.25 1504.300781 1898.730469 1580.789062 1910.71875 L 1634.789062 1919.179688 L 1653.53125 1903.578125 L 1630.609375 1897.171875 C 1543.820312 1871.851562 1492.691406 1821.429688 1481.609375 1809.621094 L 1475.191406 1823.53125 C 1474.890625 1824.191406 1474.289062 1824.648438 1473.578125 1824.78125 C 1472.859375 1824.910156 1472.148438 1824.679688 1471.640625 1824.179688 L 1418.921875 1771.878906 L 1409.941406 1790.03125 C 1409.609375 1790.710938 1408.941406 1791.171875 1408.179688 1791.238281 C 1407.441406 1791.320312 1406.691406 1791 1406.21875 1790.398438 L 1349.261719 1716.308594 L 1330.710938 1750.78125 C 1330.308594 1751.53125 1329.511719 1751.96875 1328.671875 1751.941406 C 1327.828125 1751.898438 1327.078125 1751.378906 1326.738281 1750.601562 L 1293.390625 1672.488281 L 1283.160156 1670.300781 Z M 1635.441406 1923.710938 C 1635.320312 1923.710938 1635.210938 1923.699219 1635.089844 1923.691406 L 1580.109375 1915.070312 C 1503.179688 1903.011719 1428.789062 1879.390625 1358.988281 1844.871094 L 1346.789062 1838.839844 C 1318.550781 1824.871094 1292.648438 1806.78125 1269.820312 1785.078125 L 1218.160156 1736 C 1217.289062 1735.171875 1217.25 1733.78125 1218.078125 1732.890625 L 1280.808594 1666.371094 C 1281.339844 1665.808594 1282.128906 1665.570312 1282.878906 1665.730469 L 1295.429688 1668.429688 C 1296.128906 1668.578125 1296.710938 1669.058594 1296.988281 1669.71875 L 1329 1744.671875 L 1347 1711.230469 C 1347.351562 1710.578125 1348.011719 1710.140625 1348.761719 1710.078125 C 1349.511719 1710.019531 1350.21875 1710.339844 1350.679688 1710.929688 L 1407.558594 1784.910156 L 1416.328125 1767.191406 C 1416.640625 1766.550781 1417.238281 1766.109375 1417.941406 1765.988281 C 1418.640625 1765.871094 1419.351562 1766.101562 1419.851562 1766.601562 L 1472.511719 1818.839844 L 1479.011719 1804.761719 C 1479.320312 1804.078125 1479.960938 1803.601562 1480.710938 1803.5 C 1481.449219 1803.390625 1482.199219 1803.679688 1482.679688 1804.25 C 1483.191406 1804.851562 1534.960938 1864.679688 1631.820312 1892.941406 L 1658.75 1900.46875 C 1659.539062 1900.691406 1660.140625 1901.328125 1660.308594 1902.128906 C 1660.480469 1902.929688 1660.199219 1903.761719 1659.558594 1904.28125 L 1636.839844 1923.199219 C 1636.449219 1923.539062 1635.949219 1923.710938 1635.441406 1923.710938"/></g><g id="change3_34"><path d="M 1138.828125 2045.378906 L 1275.050781 2045.378906 L 1275.050781 1897.96875 L 1138.828125 1897.96875 L 1138.828125 2045.378906"/></g><g id="change5_8"><path d="M 1455.558594 2033.109375 L 1383.660156 2013.699219 L 1306.339844 1953.351562 L 1232.628906 2002.398438 C 1216.96875 2012.820312 1197.671875 2016.199219 1179.410156 2011.730469 L 1176.269531 2010.960938 C 1157.828125 2006.441406 1143.609375 1991.761719 1139.691406 1973.179688 L 1138.699219 1968.5 C 1136.761719 1959.28125 1123.828125 1958.671875 1121.019531 1967.660156 L 1067.519531 2139.058594 L 1124.71875 2157.128906 C 1155.050781 2166.710938 1186.679688 2171.578125 1218.488281 2171.578125 L 1231.238281 2171.578125 C 1308.800781 2171.578125 1385.898438 2159.78125 1459.898438 2136.570312 L 1513.011719 2119.910156 L 1524.988281 2092.878906 L 1524.988281 2090.871094 C 1524.988281 2076.5 1518.761719 2062.828125 1507.921875 2053.398438 L 1507.769531 2053.269531 C 1502.410156 2048.609375 1496.128906 2045.160156 1489.320312 2043.140625 L 1455.558594 2033.109375" fill="#4ada85"/></g><g id="change3_35"><path d="M 1070.269531 2137.628906 L 1125.378906 2155.03125 C 1155.539062 2164.550781 1186.871094 2169.378906 1218.488281 2169.378906 L 1231.238281 2169.378906 C 1308.660156 2169.378906 1385.371094 2157.640625 1459.25 2134.46875 L 1511.398438 2118.109375 L 1522.789062 2092.410156 L 1522.789062 2090.871094 C 1522.789062 2077.128906 1516.839844 2064.078125 1506.46875 2055.058594 C 1501.171875 2050.449219 1495.238281 2047.191406 1488.699219 2045.25 L 1454.960938 2035.230469 L 1383.089844 2015.820312 C 1382.800781 2015.738281 1382.539062 2015.609375 1382.308594 2015.429688 L 1306.238281 1956.058594 L 1233.839844 2004.230469 C 1217.71875 2014.960938 1197.699219 2018.46875 1178.890625 2013.871094 L 1175.738281 2013.101562 C 1156.601562 2008.410156 1141.601562 1992.921875 1137.539062 1973.628906 L 1136.550781 1968.949219 C 1135.730469 1965.078125 1132.550781 1963.558594 1130.078125 1963.449219 C 1127.609375 1963.339844 1124.300781 1964.53125 1123.128906 1968.320312 Z M 1231.238281 2173.78125 L 1218.488281 2173.78125 C 1186.421875 2173.78125 1154.640625 2168.890625 1124.050781 2159.230469 L 1066.851562 2141.160156 C 1065.699219 2140.800781 1065.050781 2139.570312 1065.410156 2138.410156 L 1118.921875 1967 C 1120.480469 1962 1125.050781 1958.789062 1130.289062 1959.050781 C 1135.53125 1959.300781 1139.78125 1962.910156 1140.859375 1968.039062 L 1141.851562 1972.730469 C 1145.558594 1990.359375 1159.28125 2004.53125 1176.789062 2008.820312 L 1179.941406 2009.589844 C 1197.550781 2013.898438 1216.308594 2010.621094 1231.398438 2000.570312 L 1305.121094 1951.511719 C 1305.910156 1950.988281 1306.949219 1951.03125 1307.699219 1951.609375 L 1384.671875 2011.691406 L 1456.140625 2030.980469 C 1456.148438 2030.988281 1456.171875 2030.988281 1456.191406 2031 L 1489.949219 2041.03125 C 1497.101562 2043.148438 1503.578125 2046.710938 1509.210938 2051.609375 C 1520.691406 2061.589844 1527.191406 2075.859375 1527.191406 2090.871094 L 1527.191406 2092.878906 C 1527.191406 2093.191406 1527.128906 2093.488281 1527 2093.769531 L 1515.019531 2120.808594 C 1514.769531 2121.390625 1514.269531 2121.828125 1513.671875 2122.019531 L 1460.558594 2138.671875 C 1386.261719 2161.96875 1309.109375 2173.78125 1231.238281 2173.78125"/></g><g id="change2_13"><path d="M 1275.050781 1974.171875 L 1306.339844 1953.351562 L 1383.660156 2013.699219 L 1345.421875 2013.699219 C 1332.660156 2013.699219 1320.269531 2009.429688 1310.210938 2001.589844 L 1275.050781 1974.171875" fill="#fff"/></g><g id="change3_36"><path d="M 1278.808594 1974.308594 L 1311.558594 1999.851562 C 1321.191406 2007.359375 1333.210938 2011.488281 1345.421875 2011.488281 L 1377.269531 2011.488281 L 1306.238281 1956.058594 Z M 1383.660156 2015.898438 L 1345.421875 2015.898438 C 1332.238281 2015.898438 1319.25 2011.429688 1308.851562 2003.320312 L 1273.699219 1975.898438 C 1273.140625 1975.46875 1272.828125 1974.789062 1272.851562 1974.078125 C 1272.878906 1973.378906 1273.238281 1972.730469 1273.828125 1972.328125 L 1305.121094 1951.511719 C 1305.910156 1950.988281 1306.949219 1951.03125 1307.699219 1951.609375 L 1385.019531 2011.960938 C 1385.761719 2012.539062 1386.050781 2013.519531 1385.738281 2014.410156 C 1385.441406 2015.300781 1384.601562 2015.898438 1383.660156 2015.898438"/></g><g id="change2_14"><path d="M 1250.398438 2078.730469 L 1250.398438 2102.039062 L 1163.441406 2059.390625 L 1161.980469 2101.910156 L 1096.578125 2045.949219 L 1084.140625 2049.101562 L 1057.398438 2136.539062 L 1125.460938 2157.628906 C 1155.308594 2166.878906 1186.378906 2171.578125 1217.640625 2171.578125 L 1231.238281 2171.578125 C 1308.800781 2171.578125 1385.898438 2159.78125 1459.898438 2136.570312 L 1513.011719 2119.910156 L 1524.988281 2092.878906 L 1497.488281 2098.070312 C 1396.25 2116.019531 1323.238281 2084.558594 1323.238281 2084.558594 L 1323.738281 2103.199219 L 1250.398438 2078.730469" fill="#fff"/></g><g id="change3_37"><path d="M 1060.148438 2135.078125 L 1126.109375 2155.519531 C 1155.78125 2164.71875 1186.570312 2169.378906 1217.640625 2169.378906 L 1231.238281 2169.378906 C 1308.660156 2169.378906 1385.371094 2157.640625 1459.25 2134.46875 L 1511.398438 2118.109375 L 1521.28125 2095.820312 L 1497.898438 2100.238281 C 1475.511719 2104.210938 1454.421875 2105.75 1435.179688 2105.75 C 1377.921875 2105.75 1336.878906 2092.070312 1325.53125 2087.820312 L 1325.941406 2103.140625 C 1325.960938 2103.859375 1325.628906 2104.539062 1325.050781 2104.96875 C 1324.46875 2105.398438 1323.71875 2105.519531 1323.039062 2105.289062 L 1252.601562 2081.789062 L 1252.601562 2102.039062 C 1252.601562 2102.800781 1252.210938 2103.511719 1251.558594 2103.910156 C 1250.921875 2104.308594 1250.109375 2104.351562 1249.429688 2104.019531 L 1165.53125 2062.871094 L 1164.179688 2101.988281 C 1164.148438 2102.828125 1163.640625 2103.589844 1162.859375 2103.929688 C 1162.089844 2104.269531 1161.191406 2104.140625 1160.539062 2103.589844 L 1096.019531 2048.359375 L 1085.878906 2050.929688 Z M 1231.238281 2173.78125 L 1217.640625 2173.78125 C 1186.128906 2173.78125 1154.898438 2169.058594 1124.800781 2159.730469 L 1056.75 2138.640625 C 1055.589844 2138.28125 1054.941406 2137.050781 1055.289062 2135.890625 L 1082.03125 2048.449219 C 1082.261719 2047.71875 1082.851562 2047.148438 1083.601562 2046.960938 L 1096.039062 2043.820312 C 1096.738281 2043.640625 1097.46875 2043.808594 1098.019531 2044.28125 L 1159.941406 2097.269531 L 1161.238281 2059.320312 C 1161.269531 2058.570312 1161.671875 2057.890625 1162.308594 2057.5 C 1162.949219 2057.121094 1163.738281 2057.089844 1164.410156 2057.421875 L 1248.199219 2098.511719 L 1248.199219 2078.730469 C 1248.199219 2078.03125 1248.539062 2077.359375 1249.109375 2076.949219 C 1249.691406 2076.53125 1250.421875 2076.421875 1251.101562 2076.648438 L 1321.449219 2100.121094 L 1321.039062 2084.621094 C 1321.019531 2083.871094 1321.378906 2083.160156 1322 2082.738281 C 1322.621094 2082.308594 1323.421875 2082.238281 1324.109375 2082.539062 C 1324.828125 2082.851562 1397.75 2113.519531 1497.101562 2095.898438 L 1524.578125 2090.71875 C 1525.378906 2090.558594 1526.210938 2090.871094 1526.710938 2091.511719 C 1527.21875 2092.148438 1527.328125 2093.019531 1527 2093.769531 L 1515.019531 2120.808594 C 1514.769531 2121.390625 1514.269531 2121.828125 1513.671875 2122.019531 L 1460.558594 2138.671875 C 1386.261719 2161.96875 1309.109375 2173.78125 1231.238281 2173.78125"/></g><g id="change1_12"><path d="M 943.191406 1201.910156 L 1495.859375 1201.910156 C 1550.261719 1201.910156 1591.421875 1251.121094 1581.800781 1304.671875 L 1529.671875 1595.070312 L 1348.339844 1595.070312 L 1379.828125 1389.019531 L 1059.761719 1389.019531 C 995.382812 1389.019531 943.191406 1336.839844 943.191406 1272.460938 L 943.191406 1201.910156" fill="#8c7bff"/></g><g id="change1_13"><path d="M 812.96875 1283.710938 L 786.871094 1180.769531 L 996.460938 1180.769531 L 1257.5 1382.179688 C 1292.351562 1409.070312 1312.761719 1450.601562 1312.761719 1494.621094 L 1312.761719 1927.898438 L 1104.691406 1927.898438 L 1104.691406 1526.410156 L 965.097656 1388.179688 L 946.230469 1388.070312 C 883.230469 1387.671875 828.453125 1344.769531 812.96875 1283.710938" fill="#8c7bff"/></g><g id="change3_38"><path d="M 1106.890625 1927.730469 L 1310.558594 1927.730469 L 1310.558594 1494.621094 C 1310.558594 1451.589844 1290.21875 1410.210938 1256.160156 1383.921875 L 995.707031 1182.96875 L 789.699219 1182.96875 L 815.105469 1283.171875 C 830.335938 1343.25 884.261719 1385.480469 946.238281 1385.859375 L 965.109375 1385.980469 C 965.6875 1385.988281 966.238281 1386.210938 966.644531 1386.621094 L 1106.238281 1524.839844 C 1106.660156 1525.261719 1106.890625 1525.820312 1106.890625 1526.410156 Z M 1312.761719 1932.128906 L 1104.691406 1932.128906 C 1103.46875 1932.128906 1102.488281 1931.140625 1102.488281 1929.929688 L 1102.488281 1527.328125 L 964.1875 1390.378906 L 946.214844 1390.269531 C 882.230469 1389.871094 826.5625 1346.269531 810.835938 1284.25 L 784.734375 1181.308594 C 784.570312 1180.660156 784.71875 1179.960938 785.132812 1179.421875 C 785.550781 1178.878906 786.191406 1178.570312 786.871094 1178.570312 L 996.457031 1178.570312 C 996.945312 1178.570312 997.417969 1178.730469 997.804688 1179.03125 L 1258.851562 1380.441406 C 1293.988281 1407.550781 1314.960938 1450.230469 1314.960938 1494.621094 L 1314.960938 1929.929688 C 1314.960938 1931.140625 1313.980469 1932.128906 1312.761719 1932.128906"/></g><g id="change4_7"><path d="M 1153.640625 1075.699219 L 1226.25 1051.359375 C 1236.449219 1047.941406 1247.699219 1050.769531 1255.058594 1058.609375 L 1271.910156 1076.53125 C 1276.191406 1081.078125 1279.441406 1086.5 1281.421875 1092.429688 L 1286 1106.089844 C 1287.949219 1111.929688 1284.808594 1118.25 1278.96875 1120.199219 L 1277.5 1120.691406 C 1271.660156 1122.648438 1265.351562 1119.5 1263.390625 1113.671875 L 1260.398438 1104.738281 C 1258.460938 1098.960938 1255.300781 1093.671875 1251.121094 1089.21875 L 1242.378906 1079.921875 C 1238.539062 1075.839844 1232.671875 1074.359375 1227.359375 1076.148438 L 1161.210938 1098.308594 L 1153.640625 1075.699219" fill="#fda4ff"/></g><g id="change4_8"><path d="M 1179 1085.980469 L 1221.03125 1071.890625 C 1231.21875 1068.46875 1242.46875 1071.300781 1249.839844 1079.128906 L 1266.691406 1097.058594 C 1270.96875 1101.609375 1274.210938 1107.03125 1276.191406 1112.949219 L 1280.769531 1126.609375 C 1282.730469 1132.449219 1279.578125 1138.769531 1273.738281 1140.730469 L 1272.28125 1141.21875 C 1266.441406 1143.171875 1260.121094 1140.03125 1258.171875 1134.191406 L 1255.171875 1125.269531 C 1253.238281 1119.480469 1250.070312 1114.191406 1245.890625 1109.75 L 1237.148438 1100.449219 C 1233.308594 1096.359375 1227.449219 1094.890625 1222.128906 1096.671875 L 1186.570312 1108.589844 L 1179 1085.980469" fill="#fda4ff"/></g><g id="change4_9"><path d="M 1171.960938 1104.421875 L 1213.988281 1090.328125 C 1224.179688 1086.910156 1235.441406 1089.738281 1242.800781 1097.570312 L 1259.648438 1115.5 C 1263.929688 1120.050781 1267.171875 1125.46875 1269.160156 1131.390625 L 1273.738281 1145.058594 C 1275.691406 1150.898438 1272.550781 1157.210938 1266.710938 1159.171875 L 1265.238281 1159.660156 C 1259.398438 1161.621094 1253.089844 1158.46875 1251.128906 1152.628906 L 1248.140625 1143.710938 C 1246.199219 1137.929688 1243.039062 1132.628906 1238.859375 1128.191406 L 1230.121094 1118.890625 C 1226.28125 1114.808594 1220.410156 1113.328125 1215.101562 1115.109375 L 1179.539062 1127.03125 L 1171.960938 1104.421875" fill="#fda4ff"/></g><g id="change4_10"><path d="M 1069.25 1131 L 1069.25 1065.410156 L 1180.539062 1065.519531 L 1209.328125 1056.640625 L 1227.570312 1111.078125 L 1187.480469 1124.519531 L 1188.28125 1125.429688 C 1191.589844 1129.25 1196.398438 1131.441406 1201.460938 1131.441406 L 1223.910156 1131.441406 C 1229.898438 1131.441406 1234.761719 1136.300781 1234.761719 1142.289062 L 1234.761719 1143.03125 C 1234.761719 1149 1229.941406 1153.851562 1223.96875 1153.878906 C 1214.121094 1153.921875 1194.890625 1153.949219 1192.609375 1153.820312 C 1191.378906 1153.738281 1190.148438 1153.589844 1188.949219 1153.371094 L 1069.25 1131" fill="#fda4ff"/></g><g id="change4_11"><path d="M 1188.949219 1153.371094 C 1185.308594 1152.691406 1181.800781 1151.320312 1178.609375 1149.28125 L 1149.199219 1131 L 1069.25 1131 L 1188.949219 1153.371094" fill="#fda4ff"/></g><g id="change3_39"><path d="M 1261.710938 1162.441406 C 1256.128906 1162.441406 1250.910156 1158.910156 1249.039062 1153.328125 L 1246.050781 1144.410156 C 1244.230469 1138.96875 1241.191406 1133.878906 1237.261719 1129.699219 L 1228.511719 1120.398438 C 1225.269531 1116.949219 1220.28125 1115.699219 1215.800781 1117.199219 L 1189.46875 1126.019531 C 1188.320312 1126.410156 1187.070312 1125.789062 1186.691406 1124.628906 C 1186.300781 1123.480469 1186.921875 1122.230469 1188.070312 1121.851562 L 1214.398438 1113.03125 C 1220.511719 1110.980469 1227.300781 1112.691406 1231.71875 1117.378906 L 1240.460938 1126.679688 C 1244.828125 1131.320312 1248.199219 1136.96875 1250.230469 1143.011719 L 1253.21875 1151.941406 C 1254.789062 1156.609375 1259.871094 1159.140625 1264.539062 1157.570312 L 1266.011719 1157.078125 C 1268.269531 1156.320312 1270.109375 1154.730469 1271.171875 1152.589844 C 1272.238281 1150.449219 1272.410156 1148.019531 1271.648438 1145.761719 L 1267.070312 1132.089844 C 1265.199219 1126.511719 1262.078125 1121.300781 1258.050781 1117.011719 L 1241.199219 1099.078125 C 1234.441406 1091.898438 1224.039062 1089.28125 1214.691406 1092.421875 L 1207.929688 1094.679688 C 1206.769531 1095.070312 1205.519531 1094.449219 1205.140625 1093.300781 C 1204.75 1092.148438 1205.371094 1090.898438 1206.53125 1090.511719 L 1213.289062 1088.238281 C 1224.261719 1084.558594 1236.480469 1087.628906 1244.410156 1096.070312 L 1261.261719 1113.988281 C 1265.71875 1118.738281 1269.179688 1124.519531 1271.25 1130.699219 L 1275.820312 1144.359375 C 1276.960938 1147.738281 1276.710938 1151.359375 1275.121094 1154.550781 C 1273.53125 1157.738281 1270.789062 1160.121094 1267.410156 1161.261719 L 1265.941406 1161.75 C 1264.539062 1162.21875 1263.109375 1162.441406 1261.710938 1162.441406"/></g><g id="change3_40"><path d="M 1272.78125 1143.25 C 1271.859375 1143.25 1271 1142.671875 1270.691406 1141.75 C 1270.300781 1140.601562 1270.929688 1139.351562 1272.078125 1138.960938 L 1273.039062 1138.640625 C 1275.308594 1137.878906 1277.140625 1136.28125 1278.210938 1134.140625 C 1279.28125 1132.011719 1279.441406 1129.578125 1278.679688 1127.308594 L 1274.109375 1113.648438 C 1272.230469 1108.070312 1269.121094 1102.851562 1265.078125 1098.558594 L 1248.230469 1080.640625 C 1241.480469 1073.460938 1231.070312 1070.839844 1221.71875 1073.96875 L 1209.308594 1078.140625 C 1208.148438 1078.519531 1206.910156 1077.898438 1206.519531 1076.75 C 1206.128906 1075.601562 1206.761719 1074.351562 1207.910156 1073.960938 L 1220.328125 1069.800781 C 1231.300781 1066.121094 1243.511719 1069.191406 1251.441406 1077.621094 L 1268.289062 1095.550781 C 1272.75 1100.300781 1276.210938 1106.070312 1278.28125 1112.25 L 1282.859375 1125.910156 C 1283.988281 1129.300781 1283.738281 1132.921875 1282.148438 1136.109375 C 1280.558594 1139.300781 1277.820312 1141.679688 1274.441406 1142.808594 L 1273.480469 1143.140625 C 1273.25 1143.21875 1273.011719 1143.25 1272.78125 1143.25"/></g><g id="change3_41"><path d="M 1205.21875 1156.238281 C 1192.710938 1156.238281 1184.308594 1155.53125 1177.429688 1151.140625 L 1148.570312 1133.199219 L 1069.25 1133.199219 C 1068.039062 1133.199219 1067.050781 1132.210938 1067.050781 1131 L 1067.050781 1065.621094 C 1067.050781 1064.410156 1068.039062 1063.421875 1069.25 1063.421875 L 1179.378906 1063.308594 L 1225.609375 1049.25 C 1236.519531 1045.589844 1248.738281 1048.671875 1256.671875 1057.101562 L 1273.519531 1075.019531 C 1277.980469 1079.769531 1281.441406 1085.550781 1283.511719 1091.730469 L 1288.089844 1105.390625 C 1290.421875 1112.371094 1286.648438 1119.949219 1279.671875 1122.289062 C 1278.519531 1122.671875 1277.269531 1122.050781 1276.878906 1120.898438 C 1276.5 1119.75 1277.121094 1118.5 1278.269531 1118.109375 C 1282.949219 1116.550781 1285.480469 1111.46875 1283.910156 1106.789062 L 1279.328125 1093.128906 C 1277.460938 1087.539062 1274.339844 1082.328125 1270.308594 1078.039062 L 1253.460938 1060.109375 C 1246.710938 1052.929688 1236.300781 1050.308594 1226.949219 1053.449219 L 1180.339844 1067.621094 C 1180.140625 1067.691406 1179.921875 1067.71875 1179.710938 1067.71875 L 1071.460938 1067.820312 L 1071.460938 1128.800781 L 1149.199219 1128.800781 C 1149.609375 1128.800781 1150.019531 1128.910156 1150.371094 1129.128906 L 1179.78125 1147.410156 C 1187.109375 1152.089844 1196.71875 1151.96875 1214.171875 1151.769531 C 1217.199219 1151.730469 1220.460938 1151.691406 1223.960938 1151.679688 C 1228.699219 1151.648438 1232.558594 1147.78125 1232.558594 1143.03125 L 1232.558594 1142.289062 C 1232.558594 1137.519531 1228.679688 1133.640625 1223.910156 1133.640625 L 1201.460938 1133.640625 C 1195.761719 1133.640625 1190.351562 1131.179688 1186.609375 1126.878906 L 1185.820312 1125.960938 C 1185.019531 1125.039062 1185.121094 1123.648438 1186.039062 1122.859375 C 1186.949219 1122.058594 1188.339844 1122.160156 1189.140625 1123.070312 L 1189.941406 1123.988281 C 1192.839844 1127.328125 1197.039062 1129.238281 1201.460938 1129.238281 L 1223.910156 1129.238281 C 1231.109375 1129.238281 1236.960938 1135.089844 1236.960938 1142.289062 L 1236.960938 1143.03125 C 1236.960938 1150.191406 1231.140625 1156.050781 1223.980469 1156.078125 C 1220.488281 1156.089844 1217.238281 1156.128906 1214.21875 1156.171875 C 1211 1156.210938 1208.011719 1156.238281 1205.21875 1156.238281"/></g><g id="change6_18"><path d="M 939.253906 975.828125 L 1000.949219 1045.421875 C 1009.28125 1054.808594 1021.21875 1060.191406 1033.769531 1060.191406 L 1137.960938 1060.191406 L 1137.960938 1148.941406 L 1007.589844 1148.890625 C 988.019531 1148.878906 969.394531 1140.449219 956.460938 1125.761719 L 856.019531 1011.691406 L 900.367188 973.269531 C 911.84375 963.328125 929.179688 964.46875 939.253906 975.828125" fill="#fed101"/></g><g id="change6_19"><path d="M 771.609375 1242.359375 L 1022.921875 1221.898438 L 1022.070312 1191.621094 L 962.625 1191.621094 L 954.300781 1016.039062 C 952.359375 981.570312 927.117188 955.328125 893.59375 955.328125 L 818.222656 955.328125 L 777.40625 964.988281 L 771.609375 1242.359375" fill="#fed101"/></g><g id="change3_42"><path d="M 1227.558594 1195.929688 L 1485.269531 1195.929688 L 1606.46875 988.320312 L 1348.761719 988.320312 L 1227.558594 1195.929688"/></g><g id="change3_43"><path d="M 1485.269531 1222.148438 L 1021.921875 1222.148438 L 1021.921875 1195.941406 L 1485.269531 1195.941406 L 1485.269531 1222.148438"/></g><g id="change2_15"><path d="M 1436.339844 1099.171875 C 1439.058594 1089.28125 1433.628906 1079.171875 1424.21875 1076.589844 C 1414.808594 1074.011719 1404.988281 1079.941406 1402.28125 1089.828125 C 1399.558594 1099.730469 1404.988281 1109.839844 1414.398438 1112.421875 C 1423.808594 1115 1433.628906 1109.070312 1436.339844 1099.171875" fill="#fff"/></g><g id="change4_12"><path d="M 987.816406 1124.308594 L 1084.109375 1124.269531 L 1084.109375 1203.03125 L 987.816406 1203.058594 L 987.816406 1124.308594" fill="#fda4ff"/></g><g id="change4_13"><path d="M 1170.570312 1148.769531 L 1179.109375 1158 C 1183.429688 1162.671875 1183.859375 1169.730469 1180.148438 1174.878906 L 1171.761719 1186.53125 L 1151.421875 1163.839844 L 1023.628906 1163.839844 L 1023.628906 1137.101562 L 1143.859375 1137.101562 C 1154 1137.101562 1163.679688 1141.328125 1170.570312 1148.769531" fill="#fda4ff"/></g><g id="change4_14"><path d="M 1166.628906 1132.089844 L 1171.460938 1137.308594 C 1175.78125 1141.980469 1176.210938 1149.039062 1172.5 1154.191406 L 1164.109375 1165.839844 L 1143.769531 1143.148438 L 1023.628906 1143.148438 L 1023.628906 1124.550781 L 1044.019531 1124.550781 C 1052.460938 1124.550781 1067.5 1116.410156 1086.539062 1116.410156 L 1130.75 1116.410156 C 1144.371094 1116.410156 1157.378906 1122.089844 1166.628906 1132.089844" fill="#fda4ff"/></g><g id="change4_15"><path d="M 1173.550781 1166.75 L 1183.808594 1177.820312 C 1188.128906 1182.488281 1188.558594 1189.550781 1184.839844 1194.699219 L 1176.449219 1206.351562 L 1156.109375 1183.660156 L 1076.941406 1183.660156 L 1076.941406 1156.910156 L 1151.058594 1156.910156 C 1159.601562 1156.910156 1167.75 1160.480469 1173.550781 1166.75" fill="#fda4ff"/></g><g id="change4_16"><path d="M 1169.800781 1186.21875 L 1180.5 1197.769531 C 1184.46875 1202.058594 1184.859375 1208.539062 1181.449219 1213.28125 C 1176.871094 1219.640625 1167.589844 1220.128906 1162.359375 1214.300781 L 1156.558594 1207.820312 C 1153.78125 1204.71875 1149.820312 1202.960938 1145.671875 1202.960938 L 1079.191406 1202.960938 C 1061.808594 1202.960938 1049.578125 1201.960938 1032.828125 1176.191406 L 1146.910156 1176.210938 C 1155.601562 1176.210938 1163.898438 1179.839844 1169.800781 1186.21875" fill="#fda4ff"/></g><g id="change3_44"><path d="M 1180.148438 1177.078125 C 1179.699219 1177.078125 1179.25 1176.949219 1178.859375 1176.671875 C 1177.878906 1175.960938 1177.648438 1174.578125 1178.359375 1173.601562 C 1181.449219 1169.308594 1181.089844 1163.378906 1177.5 1159.5 L 1168.949219 1150.261719 C 1162.5 1143.300781 1153.359375 1139.300781 1143.859375 1139.300781 L 1120.339844 1139.300781 C 1119.121094 1139.300781 1118.140625 1138.308594 1118.140625 1137.101562 C 1118.140625 1135.878906 1119.121094 1134.898438 1120.339844 1134.898438 L 1143.859375 1134.898438 C 1154.578125 1134.898438 1164.898438 1139.410156 1172.179688 1147.269531 L 1180.730469 1156.511719 C 1185.738281 1161.921875 1186.238281 1170.191406 1181.941406 1176.171875 C 1181.511719 1176.769531 1180.828125 1177.078125 1180.148438 1177.078125"/></g><g id="change3_45"><path d="M 1181.570312 1201.441406 C 1181.128906 1201.441406 1180.679688 1201.308594 1180.289062 1201.03125 C 1179.300781 1200.320312 1179.078125 1198.941406 1179.789062 1197.949219 L 1183.058594 1193.421875 C 1186.148438 1189.128906 1185.78125 1183.199219 1182.191406 1179.320312 L 1171.941406 1168.238281 C 1166.570312 1162.441406 1158.960938 1159.109375 1151.058594 1159.109375 L 1120.121094 1159.109375 C 1118.910156 1159.109375 1117.921875 1158.128906 1117.921875 1156.910156 C 1117.921875 1155.699219 1118.910156 1154.710938 1120.121094 1154.710938 L 1151.058594 1154.710938 C 1160.179688 1154.710938 1168.96875 1158.550781 1175.171875 1165.25 L 1185.421875 1176.328125 C 1190.429688 1181.738281 1190.941406 1190.011719 1186.628906 1195.988281 L 1183.359375 1200.53125 C 1182.929688 1201.121094 1182.261719 1201.441406 1181.570312 1201.441406"/></g><g id="change3_46"><path d="M 1171.480469 1220.578125 C 1167.371094 1220.578125 1163.488281 1218.851562 1160.71875 1215.769531 L 1154.921875 1209.289062 C 1152.558594 1206.660156 1149.191406 1205.160156 1145.671875 1205.160156 L 1072.140625 1205.160156 C 1058.621094 1205.160156 1046.011719 1198.46875 1038.398438 1187.261719 C 1037.71875 1186.25 1037.980469 1184.878906 1038.988281 1184.199219 C 1039.988281 1183.519531 1041.359375 1183.78125 1042.050781 1184.789062 C 1048.828125 1194.78125 1060.078125 1200.75 1072.140625 1200.75 L 1145.671875 1200.75 C 1150.441406 1200.75 1155.011719 1202.789062 1158.199219 1206.351562 L 1164 1212.828125 C 1166.039062 1215.109375 1168.960938 1216.320312 1172.03125 1216.160156 C 1175.089844 1216 1177.878906 1214.480469 1179.671875 1211.988281 C 1182.449219 1208.121094 1182.128906 1202.769531 1178.878906 1199.269531 L 1168.191406 1187.710938 C 1162.71875 1181.800781 1154.960938 1178.410156 1146.910156 1178.410156 L 1121.160156 1178.410156 C 1119.949219 1178.410156 1118.960938 1177.429688 1118.960938 1176.210938 C 1118.960938 1175 1119.949219 1174.011719 1121.160156 1174.011719 L 1146.910156 1174.011719 C 1156.191406 1174.011719 1165.121094 1177.910156 1171.421875 1184.71875 L 1182.121094 1196.28125 C 1186.769531 1201.308594 1187.25 1209 1183.238281 1214.570312 C 1180.660156 1218.140625 1176.671875 1220.320312 1172.269531 1220.558594 C 1172.011719 1220.570312 1171.738281 1220.578125 1171.480469 1220.578125"/></g><g id="change3_47"><path d="M 1097.519531 1205.269531 L 987.816406 1205.269531 C 986.601562 1205.269531 985.613281 1204.289062 985.613281 1203.070312 L 985.613281 1124.320312 C 985.613281 1123.101562 986.601562 1122.121094 987.816406 1122.121094 L 1040.210938 1122.121094 C 1047.601562 1122.121094 1053.25 1120.558594 1059.800781 1118.75 C 1067.53125 1116.621094 1076.28125 1114.210938 1089.488281 1114.210938 L 1130.75 1114.210938 C 1144.941406 1114.210938 1158.609375 1120.179688 1168.238281 1130.589844 L 1173.078125 1135.820312 C 1177.410156 1140.488281 1178.449219 1147.238281 1175.75 1153 C 1175.230469 1154.101562 1173.921875 1154.570312 1172.820312 1154.050781 C 1171.71875 1153.539062 1171.238281 1152.21875 1171.761719 1151.121094 C 1173.699219 1146.988281 1172.949219 1142.160156 1169.851562 1138.808594 L 1165.011719 1133.578125 C 1156.210938 1124.070312 1143.71875 1118.609375 1130.75 1118.609375 L 1089.488281 1118.609375 C 1076.878906 1118.609375 1068.789062 1120.839844 1060.96875 1122.988281 C 1054.398438 1124.808594 1048.199219 1126.519531 1040.210938 1126.519531 L 990.019531 1126.519531 L 990.019531 1200.871094 L 1097.519531 1200.871094 C 1098.738281 1200.871094 1099.71875 1201.851562 1099.71875 1203.070312 C 1099.71875 1204.289062 1098.738281 1205.269531 1097.519531 1205.269531"/></g><g id="change6_20"><path d="M 813.222656 955.328125 L 819.140625 955.328125 L 856.628906 1103.230469 C 859.0625 1112.839844 867.710938 1119.558594 877.617188 1119.550781 L 1014.078125 1119.441406 L 1014.160156 1213.808594 L 852.484375 1213.941406 C 814.339844 1213.96875 781.046875 1188.089844 771.660156 1151.109375 L 744.421875 1043.78125 C 733.035156 998.910156 766.9375 955.328125 813.222656 955.328125" fill="#fed101"/></g><g id="change3_48"><path d="M 852.414062 1216.140625 C 813.242188 1216.140625 779.164062 1189.628906 769.527344 1151.660156 L 742.285156 1044.320312 C 736.691406 1022.269531 741.492188 999.328125 755.460938 981.378906 C 769.425781 963.421875 790.480469 953.128906 813.222656 953.128906 L 824.519531 953.128906 C 825.734375 953.128906 826.722656 954.109375 826.722656 955.328125 C 826.722656 956.550781 825.734375 957.53125 824.519531 957.53125 L 813.222656 957.53125 C 791.847656 957.53125 772.0625 967.210938 758.9375 984.078125 C 745.808594 1000.949219 741.296875 1022.511719 746.554688 1043.230469 L 773.796875 1150.570312 C 782.9375 1186.589844 815.261719 1211.738281 852.414062 1211.738281 C 852.4375 1211.738281 852.460938 1211.738281 852.480469 1211.738281 L 1011.960938 1211.609375 L 1011.878906 1121.648438 L 877.621094 1121.75 C 877.613281 1121.75 877.605469 1121.75 877.601562 1121.75 C 866.679688 1121.75 857.179688 1114.359375 854.492188 1103.769531 L 836 1030.808594 C 835.699219 1029.628906 836.410156 1028.441406 837.59375 1028.140625 C 838.765625 1027.839844 839.96875 1028.550781 840.269531 1029.730469 L 858.761719 1102.691406 C 860.949219 1111.328125 868.695312 1117.351562 877.601562 1117.351562 C 877.605469 1117.351562 877.609375 1117.351562 877.613281 1117.351562 L 1014.078125 1117.238281 C 1015.300781 1117.238281 1016.28125 1118.230469 1016.28125 1119.441406 L 1016.359375 1213.808594 C 1016.359375 1215.019531 1015.378906 1216.011719 1014.160156 1216.011719 L 852.488281 1216.140625 C 852.46875 1216.140625 852.4375 1216.140625 852.414062 1216.140625"/></g><g id="change3_49"><path d="M 2106.03125 591.75 C 2106.03125 710.410156 2009.75 806.601562 1890.988281 806.601562 C 1772.21875 806.601562 1675.941406 710.410156 1675.941406 591.75 C 1675.941406 473.089844 1772.21875 376.898438 1890.988281 376.898438 C 2009.75 376.898438 2106.03125 473.089844 2106.03125 591.75"/></g><g id="change6_21"><path d="M 2090.390625 576.121094 C 2090.390625 694.78125 1994.109375 790.96875 1875.351562 790.96875 C 1756.578125 790.96875 1660.300781 694.78125 1660.300781 576.121094 C 1660.300781 457.460938 1756.578125 361.269531 1875.351562 361.269531 C 1994.109375 361.269531 2090.390625 457.460938 2090.390625 576.121094" fill="#fed101"/></g><g id="change3_50"><path d="M 2052.601562 578.320312 C 2051.378906 578.320312 2050.390625 577.339844 2050.390625 576.121094 C 2050.390625 479.691406 1971.871094 401.230469 1875.351562 401.230469 C 1843 401.230469 1811.398438 410.109375 1783.96875 426.921875 C 1782.929688 427.558594 1781.578125 427.230469 1780.941406 426.191406 C 1780.300781 425.160156 1780.628906 423.800781 1781.671875 423.171875 C 1809.789062 405.941406 1842.191406 396.828125 1875.351562 396.828125 C 1974.300781 396.828125 2054.800781 477.261719 2054.800781 576.121094 C 2054.800781 577.339844 2053.808594 578.320312 2052.601562 578.320312"/></g><g id="change3_51"><path d="M 1875.351562 755.421875 C 1776.398438 755.421875 1695.890625 674.980469 1695.890625 576.121094 C 1695.890625 565.890625 1696.761719 555.628906 1698.480469 545.640625 C 1698.679688 544.441406 1699.828125 543.628906 1701.019531 543.839844 C 1702.21875 544.050781 1703.019531 545.179688 1702.820312 546.378906 C 1701.140625 556.128906 1700.300781 566.128906 1700.300781 576.121094 C 1700.300781 672.558594 1778.820312 751.011719 1875.351562 751.011719 C 1900.820312 751.011719 1925.371094 745.671875 1948.328125 735.128906 C 1949.429688 734.621094 1950.738281 735.109375 1951.25 736.210938 C 1951.761719 737.320312 1951.28125 738.628906 1950.171875 739.128906 C 1926.628906 749.941406 1901.460938 755.421875 1875.351562 755.421875"/></g><g id="change3_52"><path d="M 2027.789062 625.398438 C 2027.570312 625.398438 2027.359375 625.371094 2027.148438 625.308594 L 1871.308594 578.230469 C 1870.550781 578 1869.96875 577.371094 1869.800781 576.589844 L 1853.851562 503.230469 C 1853.589844 502.039062 1854.339844 500.871094 1855.53125 500.609375 C 1856.730469 500.359375 1857.890625 501.109375 1858.148438 502.300781 L 1873.828125 574.390625 L 2028.421875 621.089844 C 2029.589844 621.441406 2030.25 622.671875 2029.890625 623.839844 C 2029.609375 624.789062 2028.730469 625.398438 2027.789062 625.398438"/></g><g id="change8_2"><path d="M 2024.769531 565.46875 C 2024.769531 576.441406 2023.53125 587.109375 2021.199219 597.371094 L 1890.96875 565.46875 L 1855.75 424.839844 C 1864.179688 423.300781 1872.878906 422.480469 1881.769531 422.480469 C 1960.738281 422.480469 2024.769531 486.5 2024.769531 565.46875" fill="#ff7dce"/></g></g></svg>